Recursive Mono 14deg Text Light.ufo
<glyph name="numbersign" format="2">
  <advance width="600"/>
  <unicode hex="0023"/>
  <outline>
    <contour>
      <point x="61.99860674528199" y="-20.0" type="line"/>
      <point x="142.76107637500812" y="159.0"/>
      <point x="309.53692125002704" y="530.0"/>
      <point x="390.29939087975316" y="709.0" type="curve"/>
      <point x="391.04959986796086" y="712.0"/>
      <point x="391.79980885616857" y="715.0"/>
      <point x="390.2999481816404" y="717.0" type="curve" smooth="yes"/>
      <point x="389.80008750711215" y="719.0"/>
      <point x="387.05015716984803" y="720.0"/>
      <point x="384.05015716984803" y="720.0" type="curve" smooth="yes"/>
      <point x="344.05015716984803" y="720.0" type="line"/>
      <point x="287.5413796651246" y="594.0"/>
      <point x="154.77082915803413" y="299.0"/>
      <point x="98.26205165331072" y="173.0" type="curve" smooth="yes"/>
      <point x="73.75828986557212" y="119.0"/>
      <point x="40.2531348231155" y="45.0"/>
      <point x="15.749373035376905" y="-9.0" type="curve" smooth="yes"/>
      <point x="14.999164047169202" y="-12.0"/>
      <point x="14.2489550589615" y="-15.0"/>
      <point x="15.748815733489693" y="-17.0" type="curve" smooth="yes"/>
      <point x="16.2486764080179" y="-19.0"/>
      <point x="18.998606745282004" y="-20.0"/>
      <point x="21.998606745282004" y="-20.0" type="curve" smooth="yes"/>
    </contour>
    <contour>
      <point x="281.998606745282" y="-20.0" type="line"/>
      <point x="362.7610763750081" y="159.0"/>
      <point x="529.536921250027" y="530.0"/>
      <point x="610.2993908797532" y="709.0" type="curve"/>
      <point x="611.0495998679609" y="712.0"/>
      <point x="611.7998088561685" y="715.0"/>
      <point x="610.2999481816404" y="717.0" type="curve" smooth="yes"/>
      <point x="609.8000875071122" y="719.0"/>
      <point x="607.050157169848" y="720.0"/>
      <point x="604.050157169848" y="720.0" type="curve" smooth="yes"/>
      <point x="564.050157169848" y="720.0" type="line"/>
      <point x="507.5413796651246" y="594.0"/>
      <point x="374.77082915803413" y="299.0"/>
      <point x="318.2620516533107" y="173.0" type="curve" smooth="yes"/>
      <point x="293.7582898655721" y="119.0"/>
      <point x="260.2531348231155" y="45.0"/>
      <point x="235.7493730353769" y="-9.0" type="curve" smooth="yes"/>
      <point x="234.9991640471692" y="-12.0"/>
      <point x="234.24895505896149" y="-15.0"/>
      <point x="235.74881573348972" y="-17.0" type="curve" smooth="yes"/>
      <point x="236.2486764080179" y="-19.0"/>
      <point x="238.99860674528202" y="-20.0"/>
      <point x="241.99860674528202" y="-20.0" type="curve" smooth="yes"/>
    </contour>
    <contour>
      <point x="115.03483136795006" y="500.0" type="curve"/>
      <point x="105.28211452124992" y="461.0" type="line" smooth="yes"/>
      <point x="104.53190553304222" y="458.0"/>
      <point x="104.78169654483455" y="455.0"/>
      <point x="106.28155721936275" y="453.0" type="curve" smooth="yes"/>
      <point x="107.78141789389093" y="451.0"/>
      <point x="110.53134823115505" y="450.0"/>
      <point x="113.53134823115505" y="450.0" type="curve" smooth="yes"/>
      <point x="165.53134823115505" y="450.0"/>
      <point x="200.53134823115505" y="450.0"/>
      <point x="252.53134823115505" y="450.0" type="curve" smooth="yes"/>
      <point x="375.53134823115505" y="450.0"/>
      <point x="499.531348231155" y="450.0"/>
      <point x="622.531348231155" y="450.0" type="curve"/>
      <point x="632.2840650778552" y="489.0" type="line"/>
      <point x="633.0342740660628" y="492.0"/>
      <point x="632.7844830542706" y="495.0"/>
      <point x="631.2846223797424" y="497.0" type="curve" smooth="yes"/>
      <point x="629.7847617052141" y="499.0"/>
      <point x="627.03483136795" y="500.0"/>
      <point x="624.03483136795" y="500.0" type="curve" smooth="yes"/>
      <point x="453.03483136795" y="500.0"/>
      <point x="284.03483136795006" y="500.0"/>
    </contour>
    <contour>
      <point x="12.517415683975031" y="250.0" type="curve"/>
      <point x="2.7646988372749206" y="211.0" type="line" smooth="yes"/>
      <point x="2.0144898490672176" y="208.0"/>
      <point x="2.2642808608595146" y="205.0"/>
      <point x="3.764141535387722" y="203.0" type="curve" smooth="yes"/>
      <point x="5.264002209915915" y="201.0"/>
      <point x="8.01393254718002" y="200.0"/>
      <point x="11.01393254718002" y="200.0" type="curve" smooth="yes"/>
      <point x="70.01393254718002" y="200.0"/>
      <point x="111.01393254718002" y="200.0"/>
      <point x="170.01393254718002" y="200.0" type="curve" smooth="yes"/>
      <point x="286.01393254718005" y="200.0"/>
      <point x="404.01393254718005" y="200.0"/>
      <point x="520.01393254718" y="200.0" type="curve"/>
      <point x="529.7666493938801" y="239.0" type="line"/>
      <point x="530.5168583820878" y="242.0"/>
      <point x="530.2670673702955" y="245.0"/>
      <point x="528.7672066957673" y="247.0" type="curve" smooth="yes"/>
      <point x="527.2673460212391" y="249.0"/>
      <point x="524.5174156839751" y="250.0"/>
      <point x="521.5174156839751" y="250.0" type="curve" smooth="yes"/>
      <point x="350.517415683975" y="250.0"/>
      <point x="181.51741568397503" y="250.0"/>
    </contour>
  </outline>
</glyph>
<glyph name="hyphen" format="2">
  <advance width="600"/>
  <unicode hex="002D"/>
  <guideline x="-70.0" y="0" angle="179.2032303972546" identifier="PHyhQvN6fJ"/>
  <guideline x="-20.0" y="0" angle="179.2032303972546" identifier="BelB9egaI5"/>
  <guideline x="30.0" y="0" angle="179.2032303972546" identifier="SUHT4vWhaU"/>
  <guideline x="80.0" y="0" angle="179.2032303972546" identifier="6bRppkm8F0"/>
  <guideline x="130.0" y="0" angle="179.2032303972546" identifier="TzZ4bvGyRw"/>
  <guideline x="180.0" y="0" angle="179.2032303972546" identifier="BAu6seGp1w"/>
  <guideline x="230.0" y="0" angle="179.2032303972546" identifier="paseSwXpXD"/>
  <guideline x="280.0" y="0" angle="179.2032303972546" identifier="89I6LYjzQD"/>
  <guideline x="330.0" y="0" angle="179.2032303972546" identifier="B75KEKUjWG"/>
  <guideline x="380.0" y="0" angle="179.2032303972546" identifier="iLfeN39Cc7"/>
  <guideline x="430.0" y="0" angle="179.2032303972546" identifier="gcGPCpkZ8O"/>
  <guideline x="480.0" y="0" angle="179.2032303972546" identifier="nZcsKjBj8w"/>
  <guideline x="530.0" y="0" angle="179.2032303972546" identifier="4WkuhvwnfP"/>
  <guideline x="-132.51741568397503" y="-250.0" angle="180.0" identifier="Xo0miHUfpr"/>
  <guideline x="-120.01393254718002" y="-200.0" angle="180.0" identifier="2yOPoq98lw"/>
  <guideline x="-107.51044941038501" y="-150.0" angle="180.0" identifier="noivw6UKeS"/>
  <guideline x="-95.00696627359001" y="-100.0" angle="180.0" identifier="hNhmTnQPmp"/>
  <guideline x="-82.50348313679501" y="-50.0" angle="180.0" identifier="oNi1mIGYHX"/>
  <guideline x="-70.0" y="0" angle="180.0" identifier="zsjT04Ds99"/>
  <guideline x="-57.496516863204995" y="50.0" angle="180.0" identifier="1KCFR0mdpO"/>
  <guideline x="-44.99303372640999" y="100.0" angle="180.0" identifier="6I2Ogqy27r"/>
  <guideline x="-32.489550589614986" y="150.0" angle="180.0" identifier="yrK4AcR3yO"/>
  <guideline x="-19.98606745281998" y="200.0" angle="180.0" identifier="utu8Q8ixVT"/>
  <guideline x="-7.482584316024976" y="250.0" angle="180.0" identifier="RhvLSoRusz"/>
  <guideline x="5.020898820770029" y="300.0" angle="180.0" identifier="42Av6ORrey"/>
  <guideline x="17.524381957565026" y="350.0" angle="180.0" identifier="uVwDvhP2VN"/>
  <guideline x="30.02786509436004" y="400.0" angle="180.0" identifier="aXdbEOxo1h"/>
  <guideline x="42.531348231155036" y="450.0" angle="180.0" identifier="7CxZMwoCct"/>
  <guideline x="55.03483136795005" y="500.0" angle="180.0" identifier="1bpRsxJDzE"/>
  <guideline x="67.53831450474505" y="550.0" angle="180.0" identifier="EEIegZkJjw"/>
  <guideline x="80.04179764154006" y="600.0" angle="180.0" identifier="6hreYZLQR3"/>
  <guideline x="92.54528077833507" y="650.0" angle="180.0" identifier="vBZ026MHtc"/>
  <guideline x="105.04876391513005" y="700.0" angle="180.0" identifier="kFc77laLkY"/>
  <outline>
    <contour>
      <point x="125.02089882077001" y="300.0" type="curve"/>
      <point x="115.26818197406993" y="261.0" type="line" smooth="yes"/>
      <point x="114.51797298586223" y="258.0"/>
      <point x="114.76776399765453" y="255.0"/>
      <point x="116.2676246721827" y="253.0" type="curve" smooth="yes"/>
      <point x="117.76748534671091" y="251.0"/>
      <point x="120.51741568397503" y="250.0"/>
      <point x="123.51741568397503" y="250.0" type="curve" smooth="yes"/>
      <point x="159.51741568397503" y="250.0"/>
      <point x="172.51741568397503" y="250.0"/>
      <point x="207.517415683975" y="250.0" type="curve"/>
      <point x="258.26209653503884" y="250.0"/>
      <point x="442.3801607820143" y="250.0"/>
      <point x="472.51741568397506" y="250.0" type="curve"/>
      <point x="482.27013253067514" y="289.0" type="line" smooth="yes"/>
      <point x="483.0203415188828" y="292.0"/>
      <point x="482.77055050709055" y="295.0"/>
      <point x="481.2706898325623" y="297.0" type="curve" smooth="yes"/>
      <point x="479.7708291580341" y="299.0"/>
      <point x="477.02089882077007" y="300.0"/>
      <point x="474.02089882077007" y="300.0" type="curve" smooth="yes"/>
      <point x="331.950102360593" y="300.0"/>
      <point x="267.24660414992366" y="300.0"/>
    </contour>
  </outline>
</glyph>
<glyph name="C" format="2">
  <advance width="600"/>
  <unicode hex="0043"/>
  <outline>
    <contour>
      <point x="443.546674033053" y="670.0" type="curve" smooth="yes"/>
      <point x="491.546674033053" y="670.0"/>
      <point x="542.5450021273914" y="646.0"/>
      <point x="561.5436088726734" y="626.0" type="curve"/>
      <point x="576.5444448255042" y="638.0"/>
      <point x="588.7956290920146" y="655.0"/>
      <point x="576.796743695789" y="671.0" type="curve" smooth="yes"/>
      <point x="558.7984156014505" y="695.0"/>
      <point x="505.05015716984803" y="720.0"/>
      <point x="456.05015716984803" y="720.0" type="curve" smooth="yes"/>
      <point x="453.05015716984803" y="720.0" type="line" smooth="yes"/>
      <point x="302.05015716984803" y="720.0"/>
      <point x="164.54444482550426" y="638.0"/>
      <point x="102.77723812973693" y="391.0" type="curve" smooth="yes"/>
      <point x="61.015604452841615" y="224.0" type="line" smooth="yes"/>
      <point x="50.512678617933815" y="182.0"/>
      <point x="65.25675728538232" y="97.0"/>
      <point x="95.00557301887201" y="80.0" type="curve"/>
      <point x="91.75940446934652" y="135.0"/>
      <point x="107.01393254718002" y="200.0"/>
      <point x="113.51574377831344" y="226.0" type="curve" smooth="yes"/>
      <point x="154.52716846700105" y="390.0" type="line" smooth="yes"/>
      <point x="208.04207629248367" y="604.0"/>
      <point x="321.546674033053" y="670.0"/>
    </contour>
    <contour>
      <point x="265.998606745282" y="-20.0" type="line" smooth="yes"/>
      <point x="346.998606745282" y="-20.0"/>
      <point x="425.0005573018872" y="8.0"/>
      <point x="461.2525775212283" y="37.0" type="curve" smooth="yes"/>
      <point x="463.7527168467001" y="39.0"/>
      <point x="465.50292583490784" y="42.0"/>
      <point x="466.2531348231155" y="45.0" type="curve" smooth="yes"/>
      <point x="476.00585166981557" y="84.0" type="line"/>
      <point x="464.00585166981557" y="84.0" type="line"/>
      <point x="402.503483136795" y="50.0"/>
      <point x="350.50208988207703" y="30.0"/>
      <point x="266.50208988207703" y="30.0" type="curve" smooth="yes"/>
      <point x="127.502089882077" y="30.0"/>
      <point x="79.75884716745932" y="127.0"/>
      <point x="117.76943590331612" y="279.0" type="curve"/>
      <point x="96.76943590331612" y="279.0"/>
      <point x="69.76804264859811" y="259.0"/>
      <point x="61.015604452841615" y="224.0" type="curve" smooth="yes"/>
      <point x="27.256199983495108" y="89.0"/>
      <point x="97.99860674528199" y="-20.0"/>
      <point x="243.99860674528202" y="-20.0" type="curve" smooth="yes"/>
    </contour>
    <contour>
      <point x="582.03483136795" y="500.0" type="line"/>
      <point x="597.5391504575758" y="562.0" type="line" smooth="yes"/>
      <point x="606.5416583160683" y="598.0"/>
      <point x="599.7947931391838" y="643.0"/>
      <point x="578.796743695789" y="671.0" type="curve" smooth="yes"/>
      <point x="567.5477886368275" y="686.0"/>
      <point x="546.5477886368275" y="686.0"/>
      <point x="518.7970223467325" y="675.0" type="curve"/>
      <point x="551.294653813712" y="641.0"/>
      <point x="557.2918673042759" y="601.0"/>
      <point x="547.5391504575758" y="562.0" type="curve" smooth="yes"/>
      <point x="534.7855976580449" y="511.0" type="line"/>
      <point x="534.0353886698373" y="508.0"/>
      <point x="534.2851796816295" y="505.0"/>
      <point x="535.7850403561578" y="503.0" type="curve" smooth="yes"/>
      <point x="537.2849010306859" y="501.0"/>
      <point x="540.03483136795" y="500.0"/>
      <point x="543.03483136795" y="500.0" type="curve"/>
    </contour>
  </outline>
</glyph>
<glyph name="G" format="2">
  <advance width="600"/>
  <unicode hex="0047"/>
  <outline>
    <contour>
      <point x="456.05015716984803" y="720.0" type="curve" smooth="yes"/>
      <point x="453.05015716984803" y="720.0" type="line" smooth="yes"/>
      <point x="302.05015716984803" y="720.0"/>
      <point x="164.54444482550426" y="638.0"/>
      <point x="102.77723812973693" y="391.0" type="curve" smooth="yes"/>
      <point x="61.015604452841615" y="224.0" type="line" smooth="yes"/>
      <point x="50.512678617933815" y="182.0"/>
      <point x="65.25675728538232" y="97.0"/>
      <point x="95.00557301887201" y="80.0" type="curve"/>
      <point x="91.75940446934652" y="135.0"/>
      <point x="107.01393254718002" y="200.0"/>
      <point x="113.51574377831344" y="226.0" type="curve" smooth="yes"/>
      <point x="154.52716846700105" y="390.0" type="line" smooth="yes"/>
      <point x="208.04207629248367" y="604.0"/>
      <point x="321.546674033053" y="670.0"/>
      <point x="443.546674033053" y="670.0" type="curve" smooth="yes"/>
      <point x="491.546674033053" y="670.0"/>
      <point x="542.5450021273914" y="646.0"/>
      <point x="561.5436088726734" y="626.0" type="curve"/>
      <point x="576.5444448255042" y="638.0"/>
      <point x="588.7956290920146" y="655.0"/>
      <point x="576.796743695789" y="671.0" type="curve" smooth="yes"/>
      <point x="558.7984156014505" y="695.0"/>
      <point x="505.05015716984803" y="720.0"/>
    </contour>
    <contour>
      <point x="258.50208988207703" y="30.0" type="curve" smooth="yes"/>
      <point x="112.502089882077" y="30.0"/>
      <point x="86.51072806132862" y="154.0"/>
      <point x="118.51964489152382" y="282.0" type="curve"/>
      <point x="97.51964489152382" y="282.0"/>
      <point x="70.26818197406993" y="261.0"/>
      <point x="61.015604452841615" y="224.0" type="curve" smooth="yes"/>
      <point x="27.256199983495108" y="89.0"/>
      <point x="97.99860674528199" y="-20.0"/>
      <point x="242.99860674528202" y="-20.0" type="curve" smooth="yes"/>
      <point x="250.99860674528202" y="-20.0" type="line" smooth="yes"/>
      <point x="370.998606745282" y="-20.0"/>
      <point x="467.5040404386822" y="58.0"/>
      <point x="475.2561999834951" y="89.0" type="curve" smooth="yes"/>
      <point x="482.7582898655721" y="119.0"/>
      <point x="515.5174156839751" y="250.0"/>
      <point x="522.2692965778443" y="277.0" type="curve" smooth="yes"/>
      <point x="524.5199235424674" y="286.0"/>
      <point x="495.02006286793926" y="288.0"/>
      <point x="475.02006286793926" y="288.0" type="curve"/>
      <point x="469.2684606250135" y="265.0"/>
      <point x="434.0086381792516" y="124.0"/>
      <point x="429.50738425000543" y="106.0" type="curve" smooth="yes"/>
      <point x="423.005573018872" y="80.0"/>
      <point x="341.50208988207703" y="30.0"/>
    </contour>
    <contour>
      <point x="297.521595448129" y="310.0" type="curve"/>
      <point x="287.7688786014289" y="271.0" type="line" smooth="yes"/>
      <point x="287.0186696132212" y="268.0"/>
      <point x="287.2684606250135" y="265.0"/>
      <point x="288.76832129954175" y="263.0" type="curve" smooth="yes"/>
      <point x="290.26818197406993" y="261.0"/>
      <point x="293.018112311334" y="260.0"/>
      <point x="296.018112311334" y="260.0" type="curve" smooth="yes"/>
      <point x="344.018112311334" y="260.0"/>
      <point x="312.018112311334" y="260.0"/>
      <point x="360.018112311334" y="260.0" type="curve"/>
      <point x="423.018112311334" y="260.0"/>
      <point x="529.018112311334" y="260.0"/>
      <point x="565.018112311334" y="260.0" type="curve"/>
      <point x="574.7708291580341" y="299.0" type="line" smooth="yes"/>
      <point x="575.5210381462418" y="302.0"/>
      <point x="575.2712471344495" y="305.0"/>
      <point x="573.7713864599214" y="307.0" type="curve" smooth="yes"/>
      <point x="572.2715257853931" y="309.0"/>
      <point x="569.521595448129" y="310.0"/>
      <point x="566.521595448129" y="310.0" type="curve" smooth="yes"/>
      <point x="388.521595448129" y="310.0"/>
      <point x="475.521595448129" y="310.0"/>
    </contour>
    <contour>
      <point x="580.03483136795" y="500.0" type="line"/>
      <point x="595.5391504575758" y="562.0" type="line" smooth="yes"/>
      <point x="604.5416583160683" y="598.0"/>
      <point x="597.7947931391838" y="643.0"/>
      <point x="576.796743695789" y="671.0" type="curve" smooth="yes"/>
      <point x="565.5477886368275" y="686.0"/>
      <point x="544.5477886368275" y="686.0"/>
      <point x="516.7970223467325" y="675.0" type="curve"/>
      <point x="549.294653813712" y="641.0"/>
      <point x="555.2918673042759" y="601.0"/>
      <point x="545.5391504575758" y="562.0" type="curve" smooth="yes"/>
      <point x="532.7855976580449" y="511.0" type="line"/>
      <point x="532.0353886698373" y="508.0"/>
      <point x="532.2851796816295" y="505.0"/>
      <point x="533.7850403561578" y="503.0" type="curve" smooth="yes"/>
      <point x="535.2849010306859" y="501.0"/>
      <point x="538.03483136795" y="500.0"/>
      <point x="541.03483136795" y="500.0" type="curve"/>
    </contour>
  </outline>
</glyph>
<glyph name="H" format="2">
  <advance width="600"/>
  <unicode hex="0048"/>
  <outline>
    <contour>
      <point x="70.0" y="0.0" type="line"/>
      <point x="119.51379322170823" y="198.0"/>
      <point x="192.78420440332695" y="491.0"/>
      <point x="242.29799762503512" y="689.0" type="curve" smooth="yes"/>
      <point x="243.04820661324288" y="692.0"/>
      <point x="242.79841560145053" y="695.0"/>
      <point x="241.29855492692235" y="697.0" type="curve" smooth="yes"/>
      <point x="239.79869425239417" y="699.0"/>
      <point x="237.04876391513005" y="700.0"/>
      <point x="234.04876391513005" y="700.0" type="curve" smooth="yes"/>
      <point x="195.04876391513005" y="700.0" type="line"/>
      <point x="185.54611673116585" y="662.0"/>
      <point x="76.76581344104932" y="227.0"/>
      <point x="60.51128536321582" y="162.0" type="curve" smooth="yes"/>
      <point x="44.75689661085411" y="99.0"/>
      <point x="38.50515504245661" y="74.0"/>
      <point x="22.7507662900949" y="11.0" type="curve" smooth="yes"/>
      <point x="22.0005573018872" y="8.0"/>
      <point x="22.250348313679496" y="5.0"/>
      <point x="23.750208988207703" y="3.0" type="curve" smooth="yes"/>
      <point x="25.250069662735896" y="1.0"/>
      <point x="28.0" y="0.0"/>
      <point x="31.0" y="0.0" type="curve" smooth="yes"/>
    </contour>
    <contour>
      <point x="440.0" y="0.0" type="line"/>
      <point x="489.51379322170817" y="198.0"/>
      <point x="562.784204403327" y="491.0"/>
      <point x="612.2979976250351" y="689.0" type="curve" smooth="yes"/>
      <point x="613.0482066132429" y="692.0"/>
      <point x="612.7984156014505" y="695.0"/>
      <point x="611.2985549269224" y="697.0" type="curve" smooth="yes"/>
      <point x="609.7986942523942" y="699.0"/>
      <point x="607.04876391513" y="700.0"/>
      <point x="604.04876391513" y="700.0" type="curve" smooth="yes"/>
      <point x="565.04876391513" y="700.0" type="line"/>
      <point x="555.5461167311659" y="662.0"/>
      <point x="446.7658134410493" y="227.0"/>
      <point x="430.5112853632158" y="162.0" type="curve" smooth="yes"/>
      <point x="414.7568966108541" y="99.0"/>
      <point x="408.50515504245664" y="74.0"/>
      <point x="392.7507662900949" y="11.0" type="curve" smooth="yes"/>
      <point x="392.0005573018872" y="8.0"/>
      <point x="392.2503483136795" y="5.0"/>
      <point x="393.7502089882077" y="3.0" type="curve" smooth="yes"/>
      <point x="395.2500696627359" y="1.0"/>
      <point x="398.0" y="0.0"/>
      <point x="401.0" y="0.0" type="curve" smooth="yes"/>
    </contour>
    <contour>
      <point x="80.02647183964203" y="380.0" type="curve"/>
      <point x="70.27375499294192" y="341.0" type="line" smooth="yes"/>
      <point x="69.52354600473421" y="338.0"/>
      <point x="69.77333701652651" y="335.0"/>
      <point x="71.27319769105475" y="333.0" type="curve" smooth="yes"/>
      <point x="72.77305836558293" y="331.0"/>
      <point x="75.52298870284704" y="330.0"/>
      <point x="78.52298870284704" y="330.0" type="curve" smooth="yes"/>
      <point x="122.52298870284704" y="330.0"/>
      <point x="224.52298870284704" y="330.0"/>
      <point x="267.52298870284704" y="330.0" type="curve"/>
      <point x="308.52298870284704" y="330.0"/>
      <point x="477.522988702847" y="330.0"/>
      <point x="502.522988702847" y="330.0" type="curve"/>
      <point x="512.2757055495472" y="369.0" type="line" smooth="yes"/>
      <point x="513.0259145377548" y="372.0"/>
      <point x="512.7761235259625" y="375.0"/>
      <point x="511.27626285143435" y="377.0" type="curve" smooth="yes"/>
      <point x="509.7764021769061" y="379.0"/>
      <point x="507.026471839642" y="380.0"/>
      <point x="504.026471839642" y="380.0" type="curve" smooth="yes"/>
      <point x="374.026471839642" y="380.0"/>
      <point x="210.026471839642" y="380.0"/>
    </contour>
  </outline>
</glyph>
<glyph name="I" format="2">
  <advance width="600"/>
  <unicode hex="0049"/>
  <outline>
    <contour>
      <point x="260.001393254718" y="20.0" type="line"/>
      <point x="309.5151864764262" y="218.0"/>
      <point x="372.78281114860897" y="471.0"/>
      <point x="422.29660437031714" y="669.0" type="curve" smooth="yes"/>
      <point x="423.0468133585249" y="672.0"/>
      <point x="422.79702234673255" y="675.0"/>
      <point x="421.29716167220437" y="677.0" type="curve" smooth="yes"/>
      <point x="419.7973009976762" y="679.0"/>
      <point x="417.04737066041207" y="680.0"/>
      <point x="414.04737066041207" y="680.0" type="curve" smooth="yes"/>
      <point x="375.04737066041207" y="680.0" type="line"/>
      <point x="365.54472347644787" y="642.0"/>
      <point x="261.7658134410493" y="227.0"/>
      <point x="245.5112853632158" y="162.0" type="curve" smooth="yes"/>
      <point x="229.75689661085408" y="99.0"/>
      <point x="228.50654829717462" y="94.0"/>
      <point x="212.7521595448129" y="31.0" type="curve" smooth="yes"/>
      <point x="212.0019505566052" y="28.0"/>
      <point x="212.2517415683975" y="25.0"/>
      <point x="213.75160224292569" y="23.0" type="curve" smooth="yes"/>
      <point x="215.25146291745392" y="21.0"/>
      <point x="218.00139325471798" y="20.0"/>
      <point x="221.00139325471798" y="20.0" type="curve" smooth="yes"/>
    </contour>
    <contour>
      <point x="195.04876391513005" y="700.0" type="curve"/>
      <point x="185.29604706842997" y="661.0" type="line" smooth="yes"/>
      <point x="184.54583808022227" y="658.0"/>
      <point x="184.79562909201456" y="655.0"/>
      <point x="186.2954897665428" y="653.0" type="curve" smooth="yes"/>
      <point x="187.79535044107092" y="651.0"/>
      <point x="190.54528077833504" y="650.0"/>
      <point x="193.54528077833504" y="650.0" type="curve" smooth="yes"/>
      <point x="237.54528077833504" y="650.0"/>
      <point x="304.54528077833504" y="650.0"/>
      <point x="347.54528077833504" y="650.0" type="curve"/>
      <point x="388.54528077833504" y="650.0"/>
      <point x="577.545280778335" y="650.0"/>
      <point x="602.545280778335" y="650.0" type="curve"/>
      <point x="612.2979976250351" y="689.0" type="line" smooth="yes"/>
      <point x="613.0482066132429" y="692.0"/>
      <point x="612.7984156014505" y="695.0"/>
      <point x="611.2985549269224" y="697.0" type="curve" smooth="yes"/>
      <point x="609.7986942523942" y="699.0"/>
      <point x="607.04876391513" y="700.0"/>
      <point x="604.04876391513" y="700.0" type="curve" smooth="yes"/>
      <point x="474.04876391513005" y="700.0"/>
      <point x="325.04876391513005" y="700.0"/>
    </contour>
    <contour>
      <point x="32.50348313679501" y="50.0" type="curve"/>
      <point x="22.7507662900949" y="11.0" type="line" smooth="yes"/>
      <point x="22.0005573018872" y="8.0"/>
      <point x="22.250348313679496" y="5.0"/>
      <point x="23.750208988207703" y="3.0" type="curve" smooth="yes"/>
      <point x="25.250069662735896" y="1.0"/>
      <point x="28.0" y="0.0"/>
      <point x="31.0" y="0.0" type="curve" smooth="yes"/>
      <point x="75.0" y="0.0"/>
      <point x="142.0" y="0.0"/>
      <point x="185.0" y="0.0" type="curve"/>
      <point x="226.0" y="0.0"/>
      <point x="415.0" y="0.0"/>
      <point x="440.0" y="0.0" type="curve"/>
      <point x="449.7527168467001" y="39.0" type="line" smooth="yes"/>
      <point x="450.50292583490784" y="42.0"/>
      <point x="450.2531348231155" y="45.0"/>
      <point x="448.75327414858725" y="47.0" type="curve" smooth="yes"/>
      <point x="447.25341347405913" y="49.0"/>
      <point x="444.503483136795" y="50.0"/>
      <point x="441.503483136795" y="50.0" type="curve" smooth="yes"/>
      <point x="311.503483136795" y="50.0"/>
      <point x="162.503483136795" y="50.0"/>
    </contour>
  </outline>
</glyph>
<glyph name="K" format="2">
  <advance width="600"/>
  <unicode hex="004B"/>
  <outline>
    <contour>
      <point x="70.0" y="0.0" type="line"/>
      <point x="119.51379322170823" y="198.0"/>
      <point x="192.78420440332695" y="491.0"/>
      <point x="242.29799762503512" y="689.0" type="curve" smooth="yes"/>
      <point x="243.04820661324288" y="692.0"/>
      <point x="242.79841560145053" y="695.0"/>
      <point x="241.29855492692235" y="697.0" type="curve" smooth="yes"/>
      <point x="239.79869425239417" y="699.0"/>
      <point x="237.04876391513005" y="700.0"/>
      <point x="234.04876391513005" y="700.0" type="curve" smooth="yes"/>
      <point x="195.04876391513005" y="700.0" type="line"/>
      <point x="185.54611673116585" y="662.0"/>
      <point x="76.76581344104932" y="227.0"/>
      <point x="60.51128536321582" y="162.0" type="curve" smooth="yes"/>
      <point x="44.75689661085411" y="99.0"/>
      <point x="38.50515504245661" y="74.0"/>
      <point x="22.7507662900949" y="11.0" type="curve" smooth="yes"/>
      <point x="22.0005573018872" y="8.0"/>
      <point x="22.250348313679496" y="5.0"/>
      <point x="23.750208988207703" y="3.0" type="curve" smooth="yes"/>
      <point x="25.250069662735896" y="1.0"/>
      <point x="28.0" y="0.0"/>
      <point x="31.0" y="0.0" type="curve" smooth="yes"/>
    </contour>
    <contour>
      <point x="634.04876391513" y="700.0" type="curve"/>
      <point x="580.04876391513" y="700.0" type="line"/>
      <point x="424.78810551653737" y="547.0"/>
      <point x="242.7755662240753" y="367.0"/>
      <point x="87.51490782548262" y="214.0" type="curve"/>
      <point x="81.76330558255691" y="191.0"/>
      <point x="85.26093704953632" y="157.0"/>
      <point x="107.76219097878251" y="175.0" type="curve"/>
      <point x="271.27319769105475" y="333.0"/>
      <point x="461.5360852971962" y="518.0"/>
      <point x="515.2896380967271" y="569.0" type="curve" smooth="yes"/>
      <point x="635.7975796486198" y="683.0"/>
      <point x="638.7978582995634" y="687.0"/>
      <point x="640.0482066132429" y="692.0" type="curve" smooth="yes"/>
      <point x="641.0484852641864" y="696.0"/>
      <point x="639.04876391513" y="700.0"/>
    </contour>
    <contour>
      <point x="297.27654150237794" y="381.0" type="line"/>
      <point x="271.27542689860354" y="365.0"/>
      <point x="251.27403364388556" y="345.0"/>
      <point x="255.02340667926245" y="336.0" type="curve" smooth="yes"/>
      <point x="381.503483136795" y="50.0" type="line" smooth="yes"/>
      <point x="400.7504876391513" y="7.0"/>
      <point x="431.0" y="0.0"/>
      <point x="479.0" y="0.0" type="curve" smooth="yes"/>
      <point x="482.0" y="0.0"/>
      <point x="485.2500696627359" y="1.0"/>
      <point x="487.75020898820765" y="3.0" type="curve" smooth="yes"/>
      <point x="490.2503483136795" y="5.0"/>
      <point x="492.00055730188717" y="8.0"/>
      <point x="492.75076629009493" y="11.0" type="curve" smooth="yes"/>
      <point x="502.503483136795" y="50.0" type="line"/>
      <point x="492.503483136795" y="50.0" type="line"/>
      <point x="490.503483136795" y="50.0"/>
      <point x="486.503483136795" y="50.0"/>
      <point x="482.503483136795" y="50.0" type="curve" smooth="yes"/>
      <point x="455.503483136795" y="50.0"/>
      <point x="442.50376178773865" y="54.0"/>
      <point x="432.7552247051925" y="75.0" type="curve" smooth="yes"/>
    </contour>
  </outline>
</glyph>
<glyph name="N" format="2">
  <advance width="600"/>
  <unicode hex="004E"/>
  <guideline x="-70.0" y="0" angle="179.2032303972546" identifier="bnhQlM5X4v"/>
  <guideline x="-20.0" y="0" angle="179.2032303972546" identifier="iChONlEmDV"/>
  <guideline x="30.0" y="0" angle="179.2032303972546" identifier="kRVpv7jFpL"/>
  <guideline x="80.0" y="0" angle="179.2032303972546" identifier="7hrS3E3HbD"/>
  <guideline x="130.0" y="0" angle="179.2032303972546" identifier="QyP8EQI1R4"/>
  <guideline x="180.0" y="0" angle="179.2032303972546" identifier="EbPVrzJFB9"/>
  <guideline x="230.0" y="0" angle="179.2032303972546" identifier="3SEhWcsnFu"/>
  <guideline x="280.0" y="0" angle="179.2032303972546" identifier="NwhZA6fHQl"/>
  <guideline x="330.0" y="0" angle="179.2032303972546" identifier="FKX6mx6dZ0"/>
  <guideline x="380.0" y="0" angle="179.2032303972546" identifier="vcEM2GOTxx"/>
  <guideline x="430.0" y="0" angle="179.2032303972546" identifier="nnnYDEvoU4"/>
  <guideline x="480.0" y="0" angle="179.2032303972546" identifier="8aLRq3vEst"/>
  <guideline x="530.0" y="0" angle="179.2032303972546" identifier="vhxNlzmk5q"/>
  <guideline x="-132.51741568397503" y="-250.0" angle="180.0" identifier="DGkYYs6Yq5"/>
  <guideline x="-120.01393254718002" y="-200.0" angle="180.0" identifier="iuVns3JWcr"/>
  <guideline x="-107.51044941038501" y="-150.0" angle="180.0" identifier="A9eF1ri7Ug"/>
  <guideline x="-95.00696627359001" y="-100.0" angle="180.0" identifier="7iGFIubSy2"/>
  <guideline x="-82.50348313679501" y="-50.0" angle="180.0" identifier="VjKLlvlRtW"/>
  <guideline x="-70.0" y="0" angle="180.0" identifier="jYaXk88Qhx"/>
  <guideline x="-57.496516863204995" y="50.0" angle="180.0" identifier="MI4od1FB6g"/>
  <guideline x="-44.99303372640999" y="100.0" angle="180.0" identifier="89TSfxQDWD"/>
  <guideline x="-32.489550589614986" y="150.0" angle="180.0" identifier="DGVPSqflcw"/>
  <guideline x="-19.98606745281998" y="200.0" angle="180.0" identifier="n5dfPbq6ix"/>
  <guideline x="-7.482584316024976" y="250.0" angle="180.0" identifier="p35zIRhKeH"/>
  <guideline x="5.020898820770029" y="300.0" angle="180.0" identifier="zKVl5DgVO6"/>
  <guideline x="17.524381957565026" y="350.0" angle="180.0" identifier="yv82PXTJwx"/>
  <guideline x="30.02786509436004" y="400.0" angle="180.0" identifier="rut7AAgTem"/>
  <guideline x="42.531348231155036" y="450.0" angle="180.0" identifier="dQ5d3bHwMf"/>
  <guideline x="55.03483136795005" y="500.0" angle="180.0" identifier="bJEf74J9pr"/>
  <guideline x="67.53831450474505" y="550.0" angle="180.0" identifier="sNF4bYinIx"/>
  <guideline x="80.04179764154006" y="600.0" angle="180.0" identifier="PpQq9NMZND"/>
  <guideline x="92.54528077833507" y="650.0" angle="180.0" identifier="587XSakoNo"/>
  <guideline x="105.04876391513005" y="700.0" angle="180.0" identifier="KsMwZ4r2La"/>
  <outline>
    <contour>
      <point x="70.0" y="0.0" type="line"/>
      <point x="154.27347634199833" y="337.0"/>
      <point x="205.03761787738608" y="540.0"/>
      <point x="242.29799762503512" y="689.0" type="curve" smooth="yes"/>
      <point x="243.04820661324288" y="692.0"/>
      <point x="242.79841560145053" y="695.0"/>
      <point x="241.29855492692235" y="697.0" type="curve" smooth="yes"/>
      <point x="239.79869425239417" y="699.0"/>
      <point x="237.04876391513005" y="700.0"/>
      <point x="234.04876391513005" y="700.0" type="curve" smooth="yes"/>
      <point x="195.04876391513005" y="700.0" type="line"/>
      <point x="185.54611673116585" y="662.0"/>
      <point x="76.76581344104932" y="227.0"/>
      <point x="60.51128536321582" y="162.0" type="curve" smooth="yes"/>
      <point x="44.75689661085411" y="99.0"/>
      <point x="38.50515504245661" y="74.0"/>
      <point x="22.7507662900949" y="11.0" type="curve" smooth="yes"/>
      <point x="22.0005573018872" y="8.0"/>
      <point x="22.250348313679496" y="5.0"/>
      <point x="23.750208988207703" y="3.0" type="curve" smooth="yes"/>
      <point x="25.250069662735896" y="1.0"/>
      <point x="28.0" y="0.0"/>
      <point x="31.0" y="0.0" type="curve"/>
    </contour>
    <contour>
      <point x="440.0" y="0.0" type="line"/>
      <point x="484.76246962972607" y="179.0"/>
      <point x="567.535527995309" y="510.0"/>
      <point x="612.2979976250351" y="689.0" type="curve"/>
      <point x="613.0482066132429" y="692.0"/>
      <point x="612.7984156014505" y="695.0"/>
      <point x="611.2985549269224" y="697.0" type="curve" smooth="yes"/>
      <point x="609.7986942523942" y="699.0"/>
      <point x="607.04876391513" y="700.0"/>
      <point x="604.04876391513" y="700.0" type="curve" smooth="yes"/>
      <point x="565.04876391513" y="700.0" type="line"/>
      <point x="561.7978582995634" y="687.0"/>
      <point x="439.5137932217082" y="198.0"/>
      <point x="392.500696627359" y="10.0" type="curve" smooth="yes"/>
      <point x="391.7504876391513" y="7.0"/>
      <point x="392.2503483136795" y="5.0"/>
      <point x="393.7502089882077" y="3.0" type="curve" smooth="yes"/>
      <point x="395.2500696627359" y="1.0"/>
      <point x="398.0" y="0.0"/>
      <point x="401.0" y="0.0" type="curve" smooth="yes"/>
    </contour>
    <contour>
      <point x="211.04876391513005" y="700.0" type="line"/>
      <point x="216.79757964861977" y="683.0"/>
      <point x="219.29716167220437" y="677.0"/>
      <point x="223.04625605663762" y="664.0" type="curve"/>
      <point x="268.2809999174755" y="445.0"/>
      <point x="314.51574377831344" y="226.0"/>
      <point x="359.7504876391513" y="7.0" type="curve"/>
      <point x="361.5001393254718" y="2.0"/>
      <point x="364.0" y="0.0"/>
      <point x="372.0" y="0.0" type="curve" smooth="yes"/>
      <point x="396.0" y="0.0"/>
      <point x="384.0" y="0.0"/>
      <point x="406.0" y="0.0" type="curve"/>
      <point x="407.7507662900949" y="11.0"/>
      <point x="414.0019505566052" y="28.0"/>
      <point x="409.7529954976437" y="43.0" type="curve"/>
      <point x="364.51797298586223" y="258.0"/>
      <point x="320.78308979955256" y="475.0"/>
      <point x="275.54806728777106" y="690.0" type="curve"/>
      <point x="273.5486245896583" y="698.0"/>
      <point x="270.04876391513005" y="700.0"/>
      <point x="262.04876391513005" y="700.0" type="curve"/>
    </contour>
  </outline>
</glyph>
<glyph name="O" format="2">
  <advance width="600"/>
  <unicode hex="004F"/>
  <outline>
    <contour>
      <point x="410.05015716984803" y="720.0" type="curve" smooth="yes"/>
      <point x="286.05015716984803" y="720.0"/>
      <point x="162.29381786088115" y="629.0"/>
      <point x="113.78030329011654" y="435.0" type="curve" smooth="yes"/>
      <point x="66.26706737029554" y="245.0" type="line" smooth="yes"/>
      <point x="22.0047370660412" y="68.0"/>
      <point x="87.99860674528199" y="-20.0"/>
      <point x="212.99860674528202" y="-20.0" type="curve" smooth="yes"/>
      <point x="224.99860674528202" y="-20.0" type="line" smooth="yes"/>
      <point x="239.99860674528202" y="-20.0"/>
      <point x="247.49986067452818" y="-2.0"/>
      <point x="250.500696627359" y="10.0" type="curve"/>
      <point x="88.82550425295739" y="30.08404863157481"/>
      <point x="92.51044941038501" y="150.0"/>
      <point x="118.01755500944682" y="252.0" type="curve" smooth="yes"/>
      <point x="163.78030329011654" y="435.0" type="line" smooth="yes"/>
      <point x="196.78949877125535" y="567.0"/>
      <point x="285.546674033053" y="670.0"/>
      <point x="406.546674033053" y="670.0" type="curve" smooth="yes"/>
      <point x="449.546674033053" y="670.0"/>
      <point x="485.5458380802222" y="658.0"/>
      <point x="517.5447234764479" y="642.0" type="curve"/>
      <point x="523.5447234764479" y="642.0"/>
      <point x="527.7950717901274" y="647.0"/>
      <point x="529.2954897665428" y="653.0" type="curve"/>
      <point x="535.7973009976762" y="679.0"/>
      <point x="487.05015716984803" y="720.0"/>
    </contour>
    <contour>
      <point x="224.99860674528202" y="-20.0" type="curve" smooth="yes"/>
      <point x="348.998606745282" y="-20.0"/>
      <point x="472.7549460542489" y="71.0"/>
      <point x="521.2684606250135" y="265.0" type="curve" smooth="yes"/>
      <point x="568.7816965448345" y="455.0" type="line" smooth="yes"/>
      <point x="613.0440268490888" y="632.0"/>
      <point x="547.050157169848" y="720.0"/>
      <point x="422.05015716984803" y="720.0" type="curve" smooth="yes"/>
      <point x="410.05015716984803" y="720.0" type="line" smooth="yes"/>
      <point x="395.05015716984803" y="720.0"/>
      <point x="387.5489032406019" y="702.0"/>
      <point x="384.54806728777106" y="690.0" type="curve"/>
      <point x="546.2232596621727" y="669.9159513684252"/>
      <point x="542.538314504745" y="550.0"/>
      <point x="517.0312089056832" y="448.0" type="curve" smooth="yes"/>
      <point x="471.2684606250135" y="265.0" type="line" smooth="yes"/>
      <point x="438.2592651438747" y="133.0"/>
      <point x="349.50208988207703" y="30.0"/>
      <point x="228.50208988207703" y="30.0" type="curve" smooth="yes"/>
      <point x="185.502089882077" y="30.0"/>
      <point x="149.5029258349078" y="42.0"/>
      <point x="117.50404043868221" y="58.0" type="curve"/>
      <point x="111.50404043868221" y="58.0"/>
      <point x="107.25369212500271" y="53.0"/>
      <point x="105.75327414858731" y="47.0" type="curve"/>
      <point x="99.25146291745389" y="21.0"/>
      <point x="147.998606745282" y="-20.0"/>
    </contour>
  </outline>
</glyph>
<glyph name="P" format="2">
  <advance width="600"/>
  <unicode hex="0050"/>
  <outline>
    <contour>
      <point x="155.04876391513005" y="700.0" type="curve"/>
      <point x="145.29604706842997" y="661.0" type="line" smooth="yes"/>
      <point x="144.54583808022227" y="658.0"/>
      <point x="144.79562909201456" y="655.0"/>
      <point x="146.29548976654277" y="653.0" type="curve" smooth="yes"/>
      <point x="147.79535044107095" y="651.0"/>
      <point x="150.54528077833507" y="650.0"/>
      <point x="153.54528077833507" y="650.0" type="curve" smooth="yes"/>
      <point x="165.54528077833507" y="650.0"/>
      <point x="179.54528077833507" y="650.0"/>
      <point x="197.54528077833504" y="650.0" type="curve" smooth="yes"/>
      <point x="238.54528077833504" y="650.0"/>
      <point x="330.54528077833504" y="650.0"/>
      <point x="372.54528077833504" y="650.0" type="curve" smooth="yes"/>
      <point x="491.54528077833504" y="650.0"/>
      <point x="522.0445841509761" y="640.0"/>
      <point x="566.2907527005016" y="585.0" type="curve"/>
      <point x="578.7914493278606" y="595.0"/>
      <point x="589.0440268490888" y="632.0"/>
      <point x="580.0448628019196" y="644.0" type="curve" smooth="yes"/>
      <point x="546.2979976250351" y="689.0"/>
      <point x="499.04876391513005" y="700.0"/>
      <point x="385.04876391513005" y="700.0" type="curve" smooth="yes"/>
      <point x="323.04876391513005" y="700.0"/>
      <point x="236.04876391513005" y="700.0"/>
    </contour>
    <contour>
      <point x="80.0" y="0.0" type="line"/>
      <point x="147.76887860142892" y="271.0"/>
      <point x="179.52772576888822" y="398.0"/>
      <point x="247.29660437031714" y="669.0" type="curve" smooth="yes"/>
      <point x="248.0468133585249" y="672.0"/>
      <point x="247.79702234673255" y="675.0"/>
      <point x="246.29716167220437" y="677.0" type="curve" smooth="yes"/>
      <point x="244.7973009976762" y="679.0"/>
      <point x="242.04737066041207" y="680.0"/>
      <point x="239.04737066041207" y="680.0" type="curve" smooth="yes"/>
      <point x="200.04737066041207" y="680.0" type="line"/>
      <point x="185.54333022172986" y="622.0"/>
      <point x="95.51825163680581" y="262.0"/>
      <point x="70.51128536321582" y="162.0" type="curve" smooth="yes"/>
      <point x="54.75689661085411" y="99.0"/>
      <point x="48.50515504245661" y="74.0"/>
      <point x="32.7507662900949" y="11.0" type="curve" smooth="yes"/>
      <point x="32.0005573018872" y="8.0"/>
      <point x="32.250348313679496" y="5.0"/>
      <point x="33.7502089882077" y="3.0" type="curve" smooth="yes"/>
      <point x="35.250069662735896" y="1.0"/>
      <point x="38.0" y="0.0"/>
      <point x="41.0" y="0.0" type="curve" smooth="yes"/>
    </contour>
    <contour>
      <point x="578.5316268820986" y="454.0" type="curve" smooth="yes"/>
      <point x="596.7867122618194" y="527.0" type="line" smooth="yes"/>
      <point x="606.7894987712554" y="567.0"/>
      <point x="605.5424942688991" y="610.0"/>
      <point x="580.0448628019196" y="644.0" type="curve" smooth="yes"/>
      <point x="567.29604706843" y="661.0"/>
      <point x="533.29604706843" y="661.0"/>
      <point x="517.0451414528633" y="648.0" type="curve"/>
      <point x="555.2927032571067" y="613.0"/>
      <point x="560.2904740495579" y="581.0"/>
      <point x="544.7861549599321" y="519.0" type="curve" smooth="yes"/>
      <point x="530.2821145212499" y="461.0" type="line" smooth="yes"/>
      <point x="505.2751482476599" y="361.0"/>
      <point x="434.77194376180853" y="315.0"/>
      <point x="311.77194376180853" y="315.0" type="curve" smooth="yes"/>
      <point x="278.77194376180853" y="315.0"/>
      <point x="157.77194376180853" y="315.0"/>
      <point x="140.77194376180853" y="315.0" type="curve"/>
      <point x="138.52131679718542" y="306.0"/>
      <point x="136.52075949529822" y="298.0"/>
      <point x="131.01922691510842" y="276.0" type="curve" smooth="yes"/>
      <point x="129.51880893869304" y="270.0"/>
      <point x="133.26846062501352" y="265.0"/>
      <point x="139.26846062501352" y="265.0" type="curve" smooth="yes"/>
      <point x="300.2684606250135" y="265.0" type="line" smooth="yes"/>
      <point x="445.2684606250135" y="265.0"/>
      <point x="548.7733370165265" y="335.0"/>
    </contour>
  </outline>
</glyph>
<glyph name="R" format="2">
  <advance width="600"/>
  <unicode hex="0052"/>
  <outline>
    <contour>
      <point x="155.04876391513005" y="700.0" type="curve"/>
      <point x="145.29604706842997" y="661.0" type="line" smooth="yes"/>
      <point x="144.54583808022227" y="658.0"/>
      <point x="144.79562909201456" y="655.0"/>
      <point x="146.29548976654277" y="653.0" type="curve" smooth="yes"/>
      <point x="147.79535044107095" y="651.0"/>
      <point x="150.54528077833507" y="650.0"/>
      <point x="153.54528077833507" y="650.0" type="curve" smooth="yes"/>
      <point x="165.54528077833507" y="650.0"/>
      <point x="179.54528077833507" y="650.0"/>
      <point x="197.54528077833504" y="650.0" type="curve" smooth="yes"/>
      <point x="238.54528077833504" y="650.0"/>
      <point x="300.54528077833504" y="650.0"/>
      <point x="342.54528077833504" y="650.0" type="curve" smooth="yes"/>
      <point x="461.54528077833504" y="650.0"/>
      <point x="492.0445841509761" y="640.0"/>
      <point x="536.2907527005016" y="585.0" type="curve"/>
      <point x="548.7914493278606" y="595.0"/>
      <point x="559.0440268490888" y="632.0"/>
      <point x="550.0448628019196" y="644.0" type="curve" smooth="yes"/>
      <point x="516.2979976250351" y="689.0"/>
      <point x="469.04876391513005" y="700.0"/>
      <point x="355.04876391513005" y="700.0" type="curve" smooth="yes"/>
      <point x="293.04876391513005" y="700.0"/>
      <point x="236.04876391513005" y="700.0"/>
    </contour>
    <contour>
      <point x="80.0" y="0.0" type="line"/>
      <point x="147.76887860142892" y="271.0"/>
      <point x="179.52772576888822" y="398.0"/>
      <point x="247.29660437031714" y="669.0" type="curve" smooth="yes"/>
      <point x="248.0468133585249" y="672.0"/>
      <point x="247.79702234673255" y="675.0"/>
      <point x="246.29716167220437" y="677.0" type="curve" smooth="yes"/>
      <point x="244.7973009976762" y="679.0"/>
      <point x="242.04737066041207" y="680.0"/>
      <point x="239.04737066041207" y="680.0" type="curve" smooth="yes"/>
      <point x="200.04737066041207" y="680.0" type="line"/>
      <point x="185.54333022172986" y="622.0"/>
      <point x="95.51825163680581" y="262.0"/>
      <point x="70.51128536321582" y="162.0" type="curve" smooth="yes"/>
      <point x="54.75689661085411" y="99.0"/>
      <point x="48.50515504245661" y="74.0"/>
      <point x="32.7507662900949" y="11.0" type="curve" smooth="yes"/>
      <point x="32.0005573018872" y="8.0"/>
      <point x="32.250348313679496" y="5.0"/>
      <point x="33.7502089882077" y="3.0" type="curve" smooth="yes"/>
      <point x="35.250069662735896" y="1.0"/>
      <point x="38.0" y="0.0"/>
      <point x="41.0" y="0.0" type="curve" smooth="yes"/>
    </contour>
    <contour>
      <point x="556.0337167641757" y="484.0" type="curve" smooth="yes"/>
      <point x="566.7867122618194" y="527.0" type="line" smooth="yes"/>
      <point x="576.7894987712554" y="567.0"/>
      <point x="575.5424942688991" y="610.0"/>
      <point x="550.0448628019196" y="644.0" type="curve" smooth="yes"/>
      <point x="537.29604706843" y="661.0"/>
      <point x="503.29604706842997" y="661.0"/>
      <point x="487.0451414528633" y="648.0" type="curve"/>
      <point x="525.2927032571067" y="613.0"/>
      <point x="530.2904740495579" y="581.0"/>
      <point x="514.7861549599321" y="519.0" type="curve" smooth="yes"/>
      <point x="507.78420440332695" y="491.0" type="line" smooth="yes"/>
      <point x="482.77723812973693" y="391.0"/>
      <point x="412.27403364388556" y="345.0"/>
      <point x="289.27403364388556" y="345.0" type="curve" smooth="yes"/>
      <point x="256.27403364388556" y="345.0"/>
      <point x="165.27403364388553" y="345.0"/>
      <point x="148.27403364388553" y="345.0" type="curve"/>
      <point x="146.02340667926245" y="336.0"/>
      <point x="144.02284937737522" y="328.0"/>
      <point x="138.52131679718542" y="306.0" type="curve" smooth="yes"/>
      <point x="137.02089882077001" y="300.0"/>
      <point x="140.77055050709055" y="295.0"/>
      <point x="146.77055050709055" y="295.0" type="curve" smooth="yes"/>
      <point x="277.77055050709055" y="295.0" type="line" smooth="yes"/>
      <point x="422.77055050709055" y="295.0"/>
      <point x="526.2754268986035" y="365.0"/>
    </contour>
    <contour>
      <point x="336.0231280283188" y="332.0" type="line"/>
      <point x="313.0231280283188" y="332.0"/>
      <point x="283.52215275001623" y="318.0"/>
      <point x="286.02145612265724" y="308.0" type="curve" smooth="yes"/>
      <point x="348.50515504245664" y="74.0" type="line" smooth="yes"/>
      <point x="362.7516022429257" y="23.0"/>
      <point x="387.0" y="0.0"/>
      <point x="430.0" y="0.0" type="curve" smooth="yes"/>
      <point x="470.0" y="0.0" type="line" smooth="yes"/>
      <point x="477.0" y="0.0"/>
      <point x="481.00027865094364" y="4.0"/>
      <point x="482.75076629009493" y="11.0" type="curve" smooth="yes"/>
      <point x="492.503483136795" y="50.0" type="line"/>
      <point x="482.503483136795" y="50.0" type="line"/>
      <point x="474.503483136795" y="50.0"/>
      <point x="466.503483136795" y="50.0"/>
      <point x="452.503483136795" y="50.0" type="curve" smooth="yes"/>
      <point x="425.503483136795" y="50.0"/>
      <point x="409.7543887523617" y="63.0"/>
      <point x="401.7563393089669" y="91.0" type="curve" smooth="yes"/>
    </contour>
  </outline>
</glyph>
<glyph name="S" format="2">
  <advance width="600"/>
  <unicode hex="0053"/>
  <outline>
    <contour>
      <point x="379.02229207548805" y="320.0" type="curve" smooth="yes"/>
      <point x="301.77445162030097" y="351.0" type="line" smooth="yes"/>
      <point x="182.77779543162416" y="399.0"/>
      <point x="180.03093025473964" y="444.0"/>
      <point x="190.7839257523833" y="487.0" type="curve" smooth="yes"/>
      <point x="195.28517968162953" y="505.0"/>
      <point x="199.03622462266804" y="520.0"/>
      <point x="205.5380358538015" y="546.0" type="curve"/>
      <point x="177.28740888917835" y="537.0"/>
      <point x="149.03594597172446" y="516.0"/>
      <point x="139.03315946228844" y="476.0" type="curve" smooth="yes"/>
      <point x="120.99154818490325" y="403.8536585365854"/>
      <point x="154.01818522883246" y="352.2590170658633"/>
      <point x="276.52103814624184" y="302.0" type="curve" smooth="yes"/>
      <point x="354.51880893869304" y="270.0" type="line" smooth="yes"/>
      <point x="436.0164404056724" y="236.0"/>
      <point x="454.26400220991593" y="201.0"/>
      <point x="442.0105887358568" y="152.0" type="curve" smooth="yes"/>
      <point x="439.2598224457619" y="141.0"/>
      <point x="436.3298776661113" y="121.28571428571429"/>
      <point x="433.25759323821313" y="109.0" type="curve"/>
      <point x="454.5815273406945" y="114.9507496438085"/>
      <point x="490.5101707594414" y="146.0"/>
      <point x="494.76135502595173" y="163.0" type="curve"/>
      <point x="510.7658134410493" y="227.0"/>
      <point x="480.7694359033161" y="279.0"/>
    </contour>
    <contour>
      <point x="224.99860674528202" y="-20.0" type="curve" smooth="yes"/>
      <point x="360.998606745282" y="-20.0"/>
      <point x="467.549506238239" y="54.18292682926828"/>
      <point x="488.5096134575542" y="138.0" type="curve" smooth="yes"/>
      <point x="494.76135502595173" y="163.0" type="line" smooth="yes"/>
      <point x="500.99746724042825" y="187.9375"/>
      <point x="475.59384359690523" y="197.98752448141155"/>
      <point x="456.26400220991593" y="201.0" type="curve"/>
      <point x="453.12940806538916" y="188.46511627906978"/>
      <point x="446.0000721925272" y="167.953488372093"/>
      <point x="442.0105887358568" y="152.0" type="curve"/>
      <point x="424.6112104833105" y="82.421875"/>
      <point x="356.3085414949802" y="30.0"/>
      <point x="237.50208988207703" y="30.0" type="curve" smooth="yes"/>
      <point x="146.502089882077" y="30.0"/>
      <point x="98.5037617877386" y="54.0"/>
      <point x="46.25787188915672" y="113.0" type="curve"/>
      <point x="35.25787188915672" y="113.0" type="line"/>
      <point x="32.75717526179771" y="103.0"/>
      <point x="28.7560606580233" y="87.0"/>
      <point x="22.754388752361706" y="63.0" type="curve" smooth="yes"/>
      <point x="21.754110101418107" y="59.0"/>
      <point x="22.2539707759463" y="57.0"/>
      <point x="23.753831450474507" y="55.0" type="curve" smooth="yes"/>
      <point x="53.7510449410385" y="15.0"/>
      <point x="122.77638452305976" y="-20.0"/>
    </contour>
    <contour>
      <point x="468.05015716984803" y="720.0" type="curve" smooth="yes"/>
      <point x="326.05015716984803" y="720.0"/>
      <point x="172.7871038953307" y="610.9781659388647"/>
      <point x="145.28490103068594" y="501.0" type="curve" smooth="yes"/>
      <point x="139.03315946228844" y="476.0" type="line" smooth="yes"/>
      <point x="131.78113924294735" y="447.0"/>
      <point x="158.78002463917295" y="431.0"/>
      <point x="175.27960666275754" y="425.0" type="curve"/>
      <point x="180.28099991747553" y="445.0"/>
      <point x="185.28239317219354" y="465.0"/>
      <point x="190.7839257523833" y="487.0" type="curve" smooth="yes"/>
      <point x="215.91787040394286" y="587.5077720207254"/>
      <point x="346.546674033053" y="670.0"/>
      <point x="455.546674033053" y="670.0" type="curve" smooth="yes"/>
      <point x="495.546674033053" y="670.0"/>
      <point x="527.7956290920146" y="655.0"/>
      <point x="548.7939571863529" y="631.0" type="curve"/>
      <point x="566.0451414528633" y="648.0"/>
      <point x="574.7964650448454" y="667.0"/>
      <point x="565.0473706604121" y="680.0" type="curve"/>
      <point x="545.5491818915455" y="706.0"/>
      <point x="504.05015716984803" y="720.0"/>
    </contour>
    <contour>
      <point x="562.536921250027" y="530.0" type="line"/>
      <point x="577.5411010141811" y="590.0" type="line" smooth="yes"/>
      <point x="585.7933998844658" y="623.0"/>
      <point x="582.2957684174863" y="657.0"/>
      <point x="565.0473706604121" y="680.0" type="curve" smooth="yes"/>
      <point x="553.0484852641864" y="696.0"/>
      <point x="529.0482066132429" y="692.0"/>
      <point x="523.2966043703171" y="669.0" type="curve"/>
      <point x="531.7950717901274" y="647.0"/>
      <point x="535.293260558994" y="621.0"/>
      <point x="528.7914493278606" y="595.0" type="curve" smooth="yes"/>
      <point x="515.287687540122" y="541.0" type="line"/>
      <point x="514.5374785519143" y="538.0"/>
      <point x="514.7872695637066" y="535.0"/>
      <point x="516.2871302382348" y="533.0" type="curve"/>
      <point x="517.7869909127629" y="531.0"/>
      <point x="520.536921250027" y="530.0"/>
      <point x="523.536921250027" y="530.0" type="curve"/>
    </contour>
  </outline>
</glyph>
<glyph name="T" format="2">
  <advance width="600"/>
  <unicode hex="0054"/>
  <outline>
    <contour>
      <point x="255.0" y="0.0" type="line"/>
      <point x="304.5137932217082" y="198.0"/>
      <point x="372.78281114860897" y="471.0"/>
      <point x="422.29660437031714" y="669.0" type="curve" smooth="yes"/>
      <point x="423.0468133585249" y="672.0"/>
      <point x="422.79702234673255" y="675.0"/>
      <point x="421.29716167220437" y="677.0" type="curve" smooth="yes"/>
      <point x="419.7973009976762" y="679.0"/>
      <point x="417.04737066041207" y="680.0"/>
      <point x="414.04737066041207" y="680.0" type="curve" smooth="yes"/>
      <point x="375.04737066041207" y="680.0" type="line"/>
      <point x="365.54472347644787" y="642.0"/>
      <point x="261.7658134410493" y="227.0"/>
      <point x="245.5112853632158" y="162.0" type="curve" smooth="yes"/>
      <point x="229.75689661085408" y="99.0"/>
      <point x="223.50515504245664" y="74.0"/>
      <point x="207.75076629009487" y="11.0" type="curve" smooth="yes"/>
      <point x="207.00055730188723" y="8.0"/>
      <point x="207.25034831367952" y="5.0"/>
      <point x="208.7502089882077" y="3.0" type="curve" smooth="yes"/>
      <point x="210.25006966273588" y="1.0"/>
      <point x="213.0" y="0.0"/>
      <point x="216.0" y="0.0" type="curve" smooth="yes"/>
    </contour>
    <contour>
      <point x="165.04876391513005" y="700.0" type="curve"/>
      <point x="155.29604706842997" y="661.0" type="line" smooth="yes"/>
      <point x="154.54583808022227" y="658.0"/>
      <point x="154.79562909201456" y="655.0"/>
      <point x="156.29548976654277" y="653.0" type="curve" smooth="yes"/>
      <point x="157.79535044107095" y="651.0"/>
      <point x="160.54528077833507" y="650.0"/>
      <point x="163.54528077833507" y="650.0" type="curve" smooth="yes"/>
      <point x="207.54528077833504" y="650.0"/>
      <point x="304.54528077833504" y="650.0"/>
      <point x="347.54528077833504" y="650.0" type="curve"/>
      <point x="388.54528077833504" y="650.0"/>
      <point x="607.545280778335" y="650.0"/>
      <point x="632.545280778335" y="650.0" type="curve"/>
      <point x="642.2979976250351" y="689.0" type="line" smooth="yes"/>
      <point x="643.0482066132429" y="692.0"/>
      <point x="642.7984156014505" y="695.0"/>
      <point x="641.2985549269224" y="697.0" type="curve" smooth="yes"/>
      <point x="639.7986942523942" y="699.0"/>
      <point x="637.04876391513" y="700.0"/>
      <point x="634.04876391513" y="700.0" type="curve" smooth="yes"/>
      <point x="504.04876391513005" y="700.0"/>
      <point x="295.04876391513005" y="700.0"/>
    </contour>
  </outline>
</glyph>
<glyph name="U" format="2">
  <advance width="600"/>
  <unicode hex="0055"/>
  <outline>
    <contour>
      <point x="565.04876391513" y="700.0" type="line"/>
      <point x="515.5349706934219" y="502.0"/>
      <point x="442.2645595118031" y="209.0"/>
      <point x="392.7507662900949" y="11.0" type="curve" smooth="yes"/>
      <point x="392.0005573018872" y="8.0"/>
      <point x="392.2503483136795" y="5.0"/>
      <point x="393.7502089882077" y="3.0" type="curve" smooth="yes"/>
      <point x="395.2500696627359" y="1.0"/>
      <point x="398.0" y="0.0"/>
      <point x="401.0" y="0.0" type="curve" smooth="yes"/>
      <point x="440.0" y="0.0" type="line"/>
      <point x="449.5026471839642" y="38.0"/>
      <point x="508.2690179269007" y="273.0"/>
      <point x="524.5235460047343" y="338.0" type="curve" smooth="yes"/>
      <point x="540.277934757096" y="401.0"/>
      <point x="596.5436088726734" y="626.0"/>
      <point x="612.2979976250351" y="689.0" type="curve" smooth="yes"/>
      <point x="613.0482066132429" y="692.0"/>
      <point x="612.7984156014505" y="695.0"/>
      <point x="611.2985549269224" y="697.0" type="curve" smooth="yes"/>
      <point x="609.7986942523942" y="699.0"/>
      <point x="607.04876391513" y="700.0"/>
      <point x="604.04876391513" y="700.0" type="curve" smooth="yes"/>
    </contour>
    <contour>
      <point x="29.2539707759463" y="57.0"/>
      <point x="62.99860674528199" y="-20.0"/>
      <point x="165.998606745282" y="-20.0" type="curve" smooth="yes"/>
      <point x="247.99860674528202" y="-20.0"/>
      <point x="348.0022292075488" y="32.0"/>
      <point x="414.5068269481182" y="98.0" type="curve" smooth="yes"/>
      <point x="435.7582898655721" y="119.0"/>
      <point x="449.2601010967055" y="145.0"/>
      <point x="456.01253929246207" y="180.0" type="curve"/>
      <point x="328.7543887523617" y="63.0"/>
      <point x="251.50208988207703" y="30.0"/>
      <point x="180.502089882077" y="30.0" type="curve" smooth="yes"/>
      <point x="115.502089882077" y="30.0"/>
      <point x="81.5057123443438" y="82.0"/>
      <point x="102.76163367689531" y="167.0" type="curve"/>
      <point x="60.26149435142352" y="165.0"/>
      <point x="52.76051907312092" y="151.0"/>
      <point x="49.759683120290106" y="139.0" type="curve" smooth="yes"/>
    </contour>
    <contour>
      <point x="190.04876391513005" y="700.0" type="line"/>
      <point x="151.53803585380146" y="546.0"/>
      <point x="88.27041118161873" y="293.0"/>
      <point x="49.759683120290106" y="139.0" type="curve" smooth="yes"/>
      <point x="43.75801121462851" y="115.0"/>
      <point x="51.25647863443871" y="93.0"/>
      <point x="88.25647863443871" y="93.0" type="curve"/>
      <point x="95.50849885377983" y="122.0"/>
      <point x="136.76999320520332" y="287.0"/>
      <point x="149.52354600473421" y="338.0" type="curve" smooth="yes"/>
      <point x="165.27793475709592" y="401.0"/>
      <point x="221.54360887267342" y="626.0"/>
      <point x="237.29799762503512" y="689.0" type="curve" smooth="yes"/>
      <point x="238.04820661324288" y="692.0"/>
      <point x="237.79841560145053" y="695.0"/>
      <point x="236.29855492692235" y="697.0" type="curve" smooth="yes"/>
      <point x="234.79869425239417" y="699.0"/>
      <point x="232.04876391513005" y="700.0"/>
      <point x="229.04876391513005" y="700.0" type="curve" smooth="yes"/>
    </contour>
  </outline>
</glyph>
<glyph name="V" format="2">
  <advance width="600"/>
  <unicode hex="0056"/>
  <guideline x="-70.0" y="0" angle="179.2032303972546" identifier="RiLev1joH7"/>
  <guideline x="-20.0" y="0" angle="179.2032303972546" identifier="yZZI4lN2Rc"/>
  <guideline x="30.0" y="0" angle="179.2032303972546" identifier="8dqXPPYE6K"/>
  <guideline x="80.0" y="0" angle="179.2032303972546" identifier="LPTmOHadin"/>
  <guideline x="130.0" y="0" angle="179.2032303972546" identifier="VSKMW6WNeW"/>
  <guideline x="180.0" y="0" angle="179.2032303972546" identifier="kS9uzUta2p"/>
  <guideline x="230.0" y="0" angle="179.2032303972546" identifier="ksj2Z9jhQb"/>
  <guideline x="280.0" y="0" angle="179.2032303972546" identifier="C1QUonvwFv"/>
  <guideline x="330.0" y="0" angle="179.2032303972546" identifier="e2qSbKz4zF"/>
  <guideline x="380.0" y="0" angle="179.2032303972546" identifier="6y5AgFdx06"/>
  <guideline x="430.0" y="0" angle="179.2032303972546" identifier="KpUSIHafW5"/>
  <guideline x="480.0" y="0" angle="179.2032303972546" identifier="jO9m0wP4Fw"/>
  <guideline x="530.0" y="0" angle="179.2032303972546" identifier="5gkbN1Xu2I"/>
  <guideline x="-132.51741568397503" y="-250.0" angle="180.0" identifier="nYCJUWejuK"/>
  <guideline x="-120.01393254718002" y="-200.0" angle="180.0" identifier="ud3sZPO27Y"/>
  <guideline x="-107.51044941038501" y="-150.0" angle="180.0" identifier="2XwcJEMtCU"/>
  <guideline x="-95.00696627359001" y="-100.0" angle="180.0" identifier="LiYvETMtgD"/>
  <guideline x="-82.50348313679501" y="-50.0" angle="180.0" identifier="Olc3RbVh6b"/>
  <guideline x="-70.0" y="0" angle="180.0" identifier="cTzUXQMmzm"/>
  <guideline x="-57.496516863204995" y="50.0" angle="180.0" identifier="S8snboEJy5"/>
  <guideline x="-44.99303372640999" y="100.0" angle="180.0" identifier="bAF8WjMJfi"/>
  <guideline x="-32.489550589614986" y="150.0" angle="180.0" identifier="ZG4Uojtmvk"/>
  <guideline x="-19.98606745281998" y="200.0" angle="180.0" identifier="RbbSZiYi0r"/>
  <guideline x="-7.482584316024976" y="250.0" angle="180.0" identifier="goAN9BtNIZ"/>
  <guideline x="5.020898820770029" y="300.0" angle="180.0" identifier="c6AditzO21"/>
  <guideline x="17.524381957565026" y="350.0" angle="180.0" identifier="KeeDO4SvZI"/>
  <guideline x="30.02786509436004" y="400.0" angle="180.0" identifier="1qwlFALGg1"/>
  <guideline x="42.531348231155036" y="450.0" angle="180.0" identifier="gfQg6IpX31"/>
  <guideline x="55.03483136795005" y="500.0" angle="180.0" identifier="yv38xkM7go"/>
  <guideline x="67.53831450474505" y="550.0" angle="180.0" identifier="tPpLqub1Wp"/>
  <guideline x="80.04179764154006" y="600.0" angle="180.0" identifier="KdzlV2AeID"/>
  <guideline x="92.54528077833507" y="650.0" angle="180.0" identifier="MOTXVqZ45c"/>
  <guideline x="105.04876391513005" y="700.0" angle="180.0" identifier="aNn5iH5IQQ"/>
  <outline>
    <contour>
      <point x="670.0484852641864" y="696.0"/>
      <point x="669.04876391513" y="700.0"/>
      <point x="664.04876391513" y="700.0" type="curve"/>
      <point x="619.04876391513" y="700.0" type="line"/>
      <point x="488.03288081134485" y="472.0"/>
      <point x="358.01699770755965" y="244.0"/>
      <point x="227.0011146037744" y="16.0" type="curve"/>
      <point x="218.7502089882077" y="3.0"/>
      <point x="205.49986067452818" y="-2.0"/>
      <point x="198.499303372641" y="-10.0" type="curve"/>
      <point x="264.499303372641" y="-10.0" type="line"/>
      <point x="398.76553479010573" y="223.0"/>
      <point x="532.0317662075704" y="456.0"/>
      <point x="666.2979976250351" y="689.0" type="curve"/>
    </contour>
    <contour>
      <point x="191.79869425239417" y="699.0"/>
      <point x="190.04876391513005" y="700.0"/>
      <point x="186.04876391513005" y="700.0" type="curve"/>
      <point x="139.04876391513005" y="700.0" type="line"/>
      <point x="155.78253249766533" y="467.0"/>
      <point x="171.5163010802006" y="234.0"/>
      <point x="188.25006966273588" y="1.0" type="curve"/>
      <point x="189.2495123608487" y="-7.0"/>
      <point x="193.499303372641" y="-10.0"/>
      <point x="198.499303372641" y="-10.0" type="curve"/>
      <point x="216.499303372641" y="-10.0"/>
      <point x="235.74993033726412" y="-1.0"/>
      <point x="239.75104494103851" y="15.0" type="curve"/>
      <point x="224.2667887193519" y="241.0"/>
      <point x="208.0326021604012" y="468.0"/>
      <point x="192.54834593871465" y="694.0" type="curve"/>
    </contour>
  </outline>
</glyph>
<glyph name="W" format="2">
  <advance width="600"/>
  <unicode hex="0057"/>
  <outline>
    <contour>
      <point x="134.04876391513005" y="700.0" type="line"/>
      <point x="108.78253249766533" y="467.0"/>
      <point x="83.5163010802006" y="234.0"/>
      <point x="58.25006966273591" y="1.0" type="curve"/>
      <point x="57.2495123608487" y="-7.0"/>
      <point x="63.49930337264101" y="-10.0"/>
      <point x="68.49930337264101" y="-10.0" type="curve"/>
      <point x="86.49930337264101" y="-10.0" type="line" smooth="yes"/>
      <point x="96.0287151373469" y="-10.0"/>
      <point x="109.0" y="0.0"/>
      <point x="110.75104494103851" y="15.0" type="curve"/>
      <point x="137.016719056616" y="240.0"/>
      <point x="163.28239317219354" y="465.0"/>
      <point x="189.54806728777106" y="690.0" type="curve"/>
      <point x="189.79841560145053" y="695.0"/>
      <point x="189.29855492692235" y="697.0"/>
      <point x="188.5486245896583" y="698.0" type="curve" smooth="yes"/>
      <point x="187.79869425239417" y="699.0"/>
      <point x="186.04876391513005" y="700.0"/>
      <point x="183.04876391513005" y="700.0" type="curve"/>
    </contour>
    <contour>
      <point x="398.79144932786056" y="595.0"/>
      <point x="397.04179764154003" y="600.0"/>
      <point x="388.04179764154003" y="600.0" type="curve"/>
      <point x="351.04179764154003" y="600.0" type="line"/>
      <point x="266.52828307077544" y="406.0"/>
      <point x="181.514629174539" y="210.0"/>
      <point x="97.0011146037744" y="16.0" type="curve"/>
      <point x="89.0" y="0.0"/>
      <point x="80.49986067452821" y="-2.0"/>
      <point x="68.49930337264101" y="-10.0" type="curve"/>
      <point x="133.499303372641" y="-10.0" type="line"/>
      <point x="219.51295726887741" y="186.0"/>
      <point x="306.02675049058564" y="384.0"/>
      <point x="392.04040438682205" y="580.0" type="curve"/>
    </contour>
    <contour>
      <point x="410.79172797880415" y="599.0"/>
      <point x="409.04179764154003" y="600.0"/>
      <point x="405.04179764154003" y="600.0" type="curve"/>
      <point x="360.04179764154003" y="600.0" type="line"/>
      <point x="347.2779347570959" y="401.0"/>
      <point x="333.01393254718005" y="200.0"/>
      <point x="320.2500696627359" y="1.0" type="curve"/>
      <point x="320.2495123608487" y="-7.0"/>
      <point x="325.499303372641" y="-10.0"/>
      <point x="330.499303372641" y="-10.0" type="curve"/>
      <point x="346.499303372641" y="-10.0" type="line"/>
      <point x="355.499303372641" y="-10.0"/>
      <point x="370.0" y="0.0"/>
      <point x="370.0011146037744" y="16.0" type="curve"/>
      <point x="383.76442018633134" y="207.0"/>
      <point x="397.77779543162416" y="399.0"/>
      <point x="411.5411010141811" y="590.0" type="curve"/>
    </contour>
    <contour>
      <point x="620.04876391513" y="700.0" type="line"/>
      <point x="532.0328808113449" y="472.0"/>
      <point x="444.01699770755965" y="244.0"/>
      <point x="356.0011146037744" y="16.0" type="curve"/>
      <point x="349.0" y="0.0"/>
      <point x="339.7496516863205" y="-5.0"/>
      <point x="330.499303372641" y="-10.0" type="curve"/>
      <point x="396.499303372641" y="-10.0" type="line"/>
      <point x="487.5154651273698" y="222.0"/>
      <point x="579.0317662075704" y="456.0"/>
      <point x="670.0479279622992" y="688.0" type="curve"/>
      <point x="672.2982762759788" y="693.0"/>
      <point x="673.0484852641864" y="696.0"/>
      <point x="671.5486245896583" y="698.0" type="curve" smooth="yes"/>
      <point x="670.7986942523942" y="699.0"/>
      <point x="669.04876391513" y="700.0"/>
      <point x="665.04876391513" y="700.0" type="curve"/>
    </contour>
  </outline>
</glyph>
<glyph name="Y" format="2">
  <advance width="600"/>
  <unicode hex="0059"/>
  <guideline x="-70.0" y="0" angle="179.2032303972546" identifier="5oT1DVgDAo"/>
  <guideline x="-20.0" y="0" angle="179.2032303972546" identifier="RFCkLWDofk"/>
  <guideline x="30.0" y="0" angle="179.2032303972546" identifier="aXIC4Ru82S"/>
  <guideline x="80.0" y="0" angle="179.2032303972546" identifier="dkBibineW1"/>
  <guideline x="130.0" y="0" angle="179.2032303972546" identifier="hDJ3WyKh0x"/>
  <guideline x="180.0" y="0" angle="179.2032303972546" identifier="QE3Q8BxMZB"/>
  <guideline x="230.0" y="0" angle="179.2032303972546" identifier="xIjwPvItjB"/>
  <guideline x="280.0" y="0" angle="179.2032303972546" identifier="XixW3bkx9D"/>
  <guideline x="330.0" y="0" angle="179.2032303972546" identifier="gYaYXAzhYH"/>
  <guideline x="380.0" y="0" angle="179.2032303972546" identifier="rAA5rNrXmX"/>
  <guideline x="430.0" y="0" angle="179.2032303972546" identifier="3VwgHBDLAb"/>
  <guideline x="480.0" y="0" angle="179.2032303972546" identifier="6nqxtqy15t"/>
  <guideline x="530.0" y="0" angle="179.2032303972546" identifier="1tmrImHfQ8"/>
  <guideline x="-132.51741568397503" y="-250.0" angle="180.0" identifier="DXnET0tqb0"/>
  <guideline x="-120.01393254718002" y="-200.0" angle="180.0" identifier="8QE3Bbmhli"/>
  <guideline x="-107.51044941038501" y="-150.0" angle="180.0" identifier="trMHPW9Vjj"/>
  <guideline x="-95.00696627359001" y="-100.0" angle="180.0" identifier="yniJMx6wXc"/>
  <guideline x="-82.50348313679501" y="-50.0" angle="180.0" identifier="QBvcy8YgyW"/>
  <guideline x="-70.0" y="0" angle="180.0" identifier="7L5f8WqlDi"/>
  <guideline x="-57.496516863204995" y="50.0" angle="180.0" identifier="TKt0leNkRK"/>
  <guideline x="-44.99303372640999" y="100.0" angle="180.0" identifier="eNTU5ikAG9"/>
  <guideline x="-32.489550589614986" y="150.0" angle="180.0" identifier="R6ckcAqUsu"/>
  <guideline x="-19.98606745281998" y="200.0" angle="180.0" identifier="K3IbzVbC43"/>
  <guideline x="-7.482584316024976" y="250.0" angle="180.0" identifier="P4EvpjwXMe"/>
  <guideline x="5.020898820770029" y="300.0" angle="180.0" identifier="Lvw3DYddNA"/>
  <guideline x="17.524381957565026" y="350.0" angle="180.0" identifier="EhrTHXM5lP"/>
  <guideline x="30.02786509436004" y="400.0" angle="180.0" identifier="tPvGmTrPyI"/>
  <guideline x="42.531348231155036" y="450.0" angle="180.0" identifier="Iz3hJDDoIX"/>
  <guideline x="55.03483136795005" y="500.0" angle="180.0" identifier="4iS43EMiiW"/>
  <guideline x="67.53831450474505" y="550.0" angle="180.0" identifier="m3uZJuh83H"/>
  <guideline x="80.04179764154006" y="600.0" angle="180.0" identifier="hgsUVent4T"/>
  <guideline x="92.54528077833507" y="650.0" angle="180.0" identifier="F4Bv0SjKa0"/>
  <guideline x="105.04876391513005" y="700.0" angle="180.0" identifier="6FpR8vUiIM"/>
  <outline>
    <contour>
      <point x="146.04876391513005" y="700.0" type="line"/>
      <point x="190.03901113210406" y="560.0"/>
      <point x="233.27932801181396" y="421.0"/>
      <point x="277.2695752287879" y="281.0" type="curve"/>
      <point x="279.5193662405802" y="278.0"/>
      <point x="286.26929657784433" y="277.0"/>
      <point x="291.26929657784433" y="277.0" type="curve"/>
      <point x="301.26929657784433" y="277.0"/>
      <point x="314.5207594952982" y="298.0"/>
      <point x="321.7725010636957" y="323.0" type="curve"/>
      <point x="283.2809999174755" y="445.0"/>
      <point x="245.03956843399123" y="568.0"/>
      <point x="206.54806728777106" y="690.0" type="curve"/>
      <point x="205.04848526418647" y="696.0"/>
      <point x="203.04876391513005" y="700.0"/>
      <point x="192.04876391513005" y="700.0" type="curve" smooth="yes"/>
    </contour>
    <contour>
      <point x="608.04876391513" y="700.0" type="line"/>
      <point x="504.28991674767076" y="573.0"/>
      <point x="401.78113924294735" y="447.0"/>
      <point x="298.02229207548805" y="320.0" type="curve"/>
      <point x="283.02089882077" y="300.0"/>
      <point x="287.26929657784433" y="277.0"/>
      <point x="291.26929657784433" y="277.0" type="curve"/>
      <point x="320.26929657784433" y="277.0" type="line"/>
      <point x="431.27877070992673" y="413.0"/>
      <point x="544.466666590097" y="550.6058571498849"/>
      <point x="655.7978582995634" y="687.0" type="curve"/>
      <point x="660.5483459387146" y="694.0"/>
      <point x="657.04876391513" y="700.0"/>
      <point x="653.04876391513" y="700.0" type="curve"/>
    </contour>
    <contour>
      <point x="255.0" y="0.0" type="line"/>
      <point x="304.5137932217082" y="198.0"/>
      <point x="285.2584291910439" y="121.0"/>
      <point x="334.7722224127521" y="319.0" type="curve" smooth="yes"/>
      <point x="336.2726403891675" y="325.0"/>
      <point x="332.52298870284704" y="330.0"/>
      <point x="287.52298870284704" y="330.0" type="curve"/>
      <point x="278.02034151888284" y="292.0"/>
      <point x="261.7658134410493" y="227.0"/>
      <point x="245.5112853632158" y="162.0" type="curve" smooth="yes"/>
      <point x="229.75689661085408" y="99.0"/>
      <point x="223.50515504245664" y="74.0"/>
      <point x="207.75076629009487" y="11.0" type="curve" smooth="yes"/>
      <point x="207.00055730188723" y="8.0"/>
      <point x="207.25034831367952" y="5.0"/>
      <point x="208.7502089882077" y="3.0" type="curve" smooth="yes"/>
      <point x="210.25006966273588" y="1.0"/>
      <point x="213.0" y="0.0"/>
      <point x="216.0" y="0.0" type="curve" smooth="yes"/>
    </contour>
  </outline>
</glyph>
<glyph name="b" format="2">
  <advance width="600"/>
  <unicode hex="0062"/>
  <guideline x="-70.0" y="0" angle="179.2032303972546" identifier="tnu9xeEPaU"/>
  <guideline x="-20.0" y="0" angle="179.2032303972546" identifier="UEqjA7KU5G"/>
  <guideline x="30.0" y="0" angle="179.2032303972546" identifier="sYiH104Ako"/>
  <guideline x="80.0" y="0" angle="179.2032303972546" identifier="taE818uJIl"/>
  <guideline x="130.0" y="0" angle="179.2032303972546" identifier="IcJtAvdUf2"/>
  <guideline x="180.0" y="0" angle="179.2032303972546" identifier="RTHzS3F8IA"/>
  <guideline x="230.0" y="0" angle="179.2032303972546" identifier="YfFzPf2pDD"/>
  <guideline x="280.0" y="0" angle="179.2032303972546" identifier="ZFezH6o5j8"/>
  <guideline x="330.0" y="0" angle="179.2032303972546" identifier="NFDRLiOU3I"/>
  <guideline x="380.0" y="0" angle="179.2032303972546" identifier="CVRQiJdE3u"/>
  <guideline x="430.0" y="0" angle="179.2032303972546" identifier="W5j1EB2TId"/>
  <guideline x="480.0" y="0" angle="179.2032303972546" identifier="wrfL0MwBRC"/>
  <guideline x="530.0" y="0" angle="179.2032303972546" identifier="DM53QtyBX7"/>
  <guideline x="-132.51741568397503" y="-250.0" angle="180.0" identifier="lTuuEOphrR"/>
  <guideline x="-120.01393254718002" y="-200.0" angle="180.0" identifier="GGjqsmmaaI"/>
  <guideline x="-107.51044941038501" y="-150.0" angle="180.0" identifier="53jZXGG3if"/>
  <guideline x="-95.00696627359001" y="-100.0" angle="180.0" identifier="95xum06QnE"/>
  <guideline x="-82.50348313679501" y="-50.0" angle="180.0" identifier="wz0XQGmYjY"/>
  <guideline x="-70.0" y="0" angle="180.0" identifier="hltYHvSafV"/>
  <guideline x="-57.496516863204995" y="50.0" angle="180.0" identifier="gnJ8jJIKpS"/>
  <guideline x="-44.99303372640999" y="100.0" angle="180.0" identifier="RHBv1n6QYM"/>
  <guideline x="-32.489550589614986" y="150.0" angle="180.0" identifier="yIvziLMBjz"/>
  <guideline x="-19.98606745281998" y="200.0" angle="180.0" identifier="5YjSiuLI8K"/>
  <guideline x="-7.482584316024976" y="250.0" angle="180.0" identifier="ak7NuSpjjm"/>
  <guideline x="5.020898820770029" y="300.0" angle="180.0" identifier="IMBpWHCdoB"/>
  <guideline x="17.524381957565026" y="350.0" angle="180.0" identifier="RVeBM1FnA1"/>
  <guideline x="30.02786509436004" y="400.0" angle="180.0" identifier="1RpMXFHHkk"/>
  <guideline x="42.531348231155036" y="450.0" angle="180.0" identifier="mwQkOBEA7E"/>
  <guideline x="55.03483136795005" y="500.0" angle="180.0" identifier="vdlKSau6Q5"/>
  <guideline x="67.53831450474505" y="550.0" angle="180.0" identifier="ZtpmYXipSf"/>
  <guideline x="80.04179764154006" y="600.0" angle="180.0" identifier="5Hx4llpsDi"/>
  <guideline x="92.54528077833507" y="650.0" angle="180.0" identifier="NimOuye5l0"/>
  <guideline x="105.04876391513005" y="700.0" angle="180.0" identifier="Tdp0zgpFWp"/>
  <outline>
    <contour>
      <point x="80.0" y="0.0" type="line"/>
      <point x="111.7560606580233" y="87.0" type="line"/>
      <point x="172.52298870284704" y="330.0"/>
      <point x="207.53274148587303" y="470.0"/>
      <point x="274.80148076183013" y="739.0" type="curve" smooth="yes"/>
      <point x="275.5516897500379" y="742.0"/>
      <point x="275.30189873824554" y="745.0"/>
      <point x="273.80203806371736" y="747.0" type="curve" smooth="yes"/>
      <point x="272.3021773891892" y="749.0"/>
      <point x="269.55224705192506" y="750.0"/>
      <point x="266.55224705192506" y="750.0" type="curve" smooth="yes"/>
      <point x="227.55224705192506" y="750.0" type="line"/>
      <point x="185.54054371229384" y="582.0"/>
      <point x="129.27486959671631" y="357.0"/>
      <point x="80.51128536321582" y="162.0" type="curve" smooth="yes"/>
      <point x="64.75689661085411" y="99.0"/>
      <point x="58.50515504245661" y="74.0"/>
      <point x="42.7507662900949" y="11.0" type="curve" smooth="yes"/>
      <point x="42.0005573018872" y="8.0"/>
      <point x="42.250348313679496" y="5.0"/>
      <point x="43.7502089882077" y="3.0" type="curve" smooth="yes"/>
      <point x="45.250069662735896" y="1.0"/>
      <point x="48.0" y="0.0"/>
      <point x="51.0" y="0.0" type="curve"/>
    </contour>
    <contour>
      <point x="564.7805819410602" y="439.0"/>
      <point x="508.036224622668" y="520.0"/>
      <point x="404.03622462266804" y="520.0" type="curve" smooth="yes"/>
      <point x="328.03622462266804" y="520.0"/>
      <point x="259.39742965757165" y="483.49099868145635"/>
      <point x="198.78030329011654" y="435.0" type="curve" smooth="yes"/>
      <point x="173.77891003539855" y="415.0"/>
      <point x="163.27682015332152" y="385.0"/>
      <point x="159.27514824765993" y="361.0" type="curve"/>
      <point x="256.453300722482" y="442.0198223174105"/>
      <point x="317.53274148587303" y="470.0"/>
      <point x="390.53274148587303" y="470.0" type="curve" smooth="yes"/>
      <point x="475.5327414858731" y="470.0"/>
      <point x="512.0273077924728" y="392.0"/>
      <point x="482.0189482641648" y="272.0" type="curve"/>
      <point x="517.0192269151084" y="276.0"/>
      <point x="529.5207594952982" y="298.0"/>
      <point x="532.0214561226572" y="308.0" type="curve" smooth="yes"/>
    </contour>
    <contour>
      <point x="248.99860674528202" y="-20.0" type="curve" smooth="yes"/>
      <point x="379.998606745282" y="-20.0"/>
      <point x="472.00473706604123" y="68.0"/>
      <point x="513.7663707429365" y="235.0" type="curve" smooth="yes"/>
      <point x="532.0214561226572" y="308.0" type="line" smooth="yes"/>
      <point x="545.5252179103959" y="362.0"/>
      <point x="530.5307909292678" y="442.0"/>
      <point x="506.5307909292678" y="442.0" type="curve"/>
      <point x="497.5307909292678" y="442.0"/>
      <point x="492.28072126653194" y="441.0"/>
      <point x="489.2804426155883" y="437.0" type="curve"/>
      <point x="496.5274471179446" y="394.0"/>
      <point x="492.77445162030097" y="351.0"/>
      <point x="474.5193662405802" y="278.0" type="curve" smooth="yes"/>
      <point x="466.26706737029554" y="245.0" type="line" smooth="yes"/>
      <point x="432.25759323821313" y="109.0"/>
      <point x="369.50208988207703" y="30.0"/>
      <point x="258.50208988207703" y="30.0" type="curve" smooth="yes"/>
      <point x="189.50208988207703" y="30.0"/>
      <point x="152.5043190896258" y="62.0"/>
      <point x="115.75940446934652" y="135.0" type="curve"/>
      <point x="109.75940446934652" y="135.0"/>
      <point x="89.2570359363259" y="101.0"/>
      <point x="95.00613032075921" y="88.0" type="curve" smooth="yes"/>
      <point x="122.00195055660521" y="28.0"/>
      <point x="160.998606745282" y="-20.0"/>
    </contour>
  </outline>
</glyph>
<glyph name="c" format="2">
  <advance width="600"/>
  <unicode hex="0063"/>
  <outline>
    <contour>
      <point x="386.03622462266804" y="520.0" type="curve" smooth="yes"/>
      <point x="254.03622462266804" y="520.0"/>
      <point x="131.53106958021144" y="446.0"/>
      <point x="88.51908758963663" y="274.0" type="curve" smooth="yes"/>
      <point x="76.01560445284161" y="224.0" type="line" smooth="yes"/>
      <point x="57.010310084913215" y="148.0"/>
      <point x="53.7560606580233" y="87.0"/>
      <point x="83.75327414858731" y="47.0" type="curve" smooth="yes"/>
      <point x="89.00278650943599" y="40.0"/>
      <point x="121.00278650943599" y="40.0"/>
      <point x="129.0033438113232" y="48.0" type="curve"/>
      <point x="107.2570359363259" y="101.0"/>
      <point x="107.51044941038501" y="150.0"/>
      <point x="122.76469883727492" y="211.0" type="curve" smooth="yes"/>
      <point x="134.0178336603904" y="256.0" type="line" smooth="yes"/>
      <point x="169.52772576888822" y="398.0"/>
      <point x="244.53274148587303" y="470.0"/>
      <point x="373.53274148587303" y="470.0" type="curve" smooth="yes"/>
      <point x="447.36947617975056" y="470.0"/>
      <point x="482.4830537341885" y="444.8157926472409"/>
      <point x="493.0287010471908" y="412.0" type="curve"/>
      <point x="517.2798853137011" y="429.0"/>
      <point x="531.781417893891" y="451.0"/>
      <point x="512.2832291250244" y="477.0" type="curve"/>
      <point x="489.26580636002154" y="507.69274787438934"/>
      <point x="438.09622462266805" y="520.0"/>
    </contour>
    <contour>
      <point x="264.998606745282" y="-20.0" type="line" smooth="yes"/>
      <point x="337.998606745282" y="-20.0"/>
      <point x="410.5001393254718" y="2.0"/>
      <point x="441.7518808938693" y="27.0" type="curve" smooth="yes"/>
      <point x="444.25202021934115" y="29.0"/>
      <point x="446.0022292075488" y="32.0"/>
      <point x="446.75243819575655" y="35.0" type="curve" smooth="yes"/>
      <point x="456.50515504245664" y="74.0" type="line"/>
      <point x="444.50515504245664" y="74.0" type="line"/>
      <point x="390.0030651603796" y="44.0"/>
      <point x="347.50208988207703" y="30.0"/>
      <point x="271.50208988207703" y="30.0" type="curve" smooth="yes"/>
      <point x="160.502089882077" y="30.0"/>
      <point x="121.004179764154" y="60.0"/>
      <point x="92.50933480661061" y="134.0" type="curve"/>
      <point x="71.2581505401003" y="117.0"/>
      <point x="62.75522470519252" y="75.0"/>
      <point x="83.75327414858731" y="47.0" type="curve"/>
      <point x="116.50013932547179" y="2.0"/>
      <point x="174.998606745282" y="-20.0"/>
      <point x="252.99860674528202" y="-20.0" type="curve" smooth="yes"/>
    </contour>
    <contour>
      <point x="512.521595448129" y="310.0" type="line"/>
      <point x="525.5252179103959" y="362.0" type="line" smooth="yes"/>
      <point x="537.0284223962473" y="408.0"/>
      <point x="539.1199622415573" y="441.2143652776618"/>
      <point x="512.2832291250244" y="477.0" type="curve" smooth="yes"/>
      <point x="501.03427406606284" y="492.0"/>
      <point x="462.7830897995525" y="475.0"/>
      <point x="456.2826718231371" y="469.0" type="curve"/>
      <point x="481.9120971020998" y="442.7726720176522"/>
      <point x="488.2143197659226" y="412.74226804123714"/>
      <point x="475.5252179103959" y="362.0" type="curve" smooth="yes"/>
      <point x="465.27236173822394" y="321.0" type="line"/>
      <point x="464.5221527500162" y="318.0"/>
      <point x="464.77194376180853" y="315.0"/>
      <point x="466.27180443633677" y="313.0" type="curve" smooth="yes"/>
      <point x="467.7716651108649" y="311.0"/>
      <point x="470.521595448129" y="310.0"/>
      <point x="473.521595448129" y="310.0" type="curve"/>
    </contour>
  </outline>
</glyph>
<glyph name="f" format="2">
  <advance width="600"/>
  <unicode hex="0066"/>
  <guideline x="-70.0" y="0" angle="179.2032303972546" identifier="k0nCfXjnXe"/>
  <guideline x="-20.0" y="0" angle="179.2032303972546" identifier="NDErcjUkcH"/>
  <guideline x="30.0" y="0" angle="179.2032303972546" identifier="VbWY1BZIUF"/>
  <guideline x="80.0" y="0" angle="179.2032303972546" identifier="E52jSLNseP"/>
  <guideline x="130.0" y="0" angle="179.2032303972546" identifier="Aea8lawyqG"/>
  <guideline x="180.0" y="0" angle="179.2032303972546" identifier="xeBMJ5vzqL"/>
  <guideline x="230.0" y="0" angle="179.2032303972546" identifier="ZYBdKEDK07"/>
  <guideline x="280.0" y="0" angle="179.2032303972546" identifier="L2NiAUCzYv"/>
  <guideline x="330.0" y="0" angle="179.2032303972546" identifier="jF1yc7VsWJ"/>
  <guideline x="380.0" y="0" angle="179.2032303972546" identifier="IrCgAkmPm7"/>
  <guideline x="430.0" y="0" angle="179.2032303972546" identifier="Jlbm5cFhwo"/>
  <guideline x="480.0" y="0" angle="179.2032303972546" identifier="Gor89RoSKx"/>
  <guideline x="530.0" y="0" angle="179.2032303972546" identifier="SUUShWhGOS"/>
  <guideline x="-132.51741568397503" y="-250.0" angle="180.0" identifier="WTEdaG6mlf"/>
  <guideline x="-120.01393254718002" y="-200.0" angle="180.0" identifier="ygR2me4loG"/>
  <guideline x="-107.51044941038501" y="-150.0" angle="180.0" identifier="JIqlVfAK1x"/>
  <guideline x="-95.00696627359001" y="-100.0" angle="180.0" identifier="XBhtzhZsHT"/>
  <guideline x="-82.50348313679501" y="-50.0" angle="180.0" identifier="h6JPHY06s0"/>
  <guideline x="-70.0" y="0" angle="180.0" identifier="2yuXpb7OYW"/>
  <guideline x="-57.496516863204995" y="50.0" angle="180.0" identifier="8xB0HQcDDG"/>
  <guideline x="-44.99303372640999" y="100.0" angle="180.0" identifier="O8cOBrHNuh"/>
  <guideline x="-32.489550589614986" y="150.0" angle="180.0" identifier="UxzCwIFOaT"/>
  <guideline x="-19.98606745281998" y="200.0" angle="180.0" identifier="NB8k84bnFK"/>
  <guideline x="-7.482584316024976" y="250.0" angle="180.0" identifier="yXMZibCaS5"/>
  <guideline x="5.020898820770029" y="300.0" angle="180.0" identifier="PFbZjES8ub"/>
  <guideline x="17.524381957565026" y="350.0" angle="180.0" identifier="C2ZAzshlfD"/>
  <guideline x="30.02786509436004" y="400.0" angle="180.0" identifier="WackZNhB1G"/>
  <guideline x="42.531348231155036" y="450.0" angle="180.0" identifier="gWBBZaO5Au"/>
  <guideline x="55.03483136795005" y="500.0" angle="180.0" identifier="ECSDIO4oPR"/>
  <guideline x="67.53831450474505" y="550.0" angle="180.0" identifier="vLncpThX96"/>
  <guideline x="80.04179764154006" y="600.0" angle="180.0" identifier="wY7FOt8W7N"/>
  <guideline x="92.54528077833507" y="650.0" angle="180.0" identifier="jNopPH20a7"/>
  <guideline x="105.04876391513005" y="700.0" angle="180.0" identifier="fcNSbB7AXB"/>
  <outline>
    <contour>
      <point x="363.79451448824017" y="639.0" type="curve"/>
      <point x="403.98031977616165" y="681.0963428720535"/>
      <point x="434.28164062745884" y="700.0"/>
      <point x="505.04876391513005" y="700.0" type="curve" smooth="yes"/>
      <point x="560.04876391513" y="700.0"/>
      <point x="606.5483459387146" y="694.0"/>
      <point x="636.7970223467325" y="675.0" type="curve"/>
      <point x="648.7970223467325" y="675.0" type="line"/>
      <point x="658.7998088561685" y="715.0" type="line"/>
      <point x="659.8000875071122" y="719.0"/>
      <point x="659.300226832584" y="721.0"/>
      <point x="657.8003661580558" y="723.0" type="curve" smooth="yes"/>
      <point x="649.9228702048916" y="733.5043036155903"/>
      <point x="589.9245098256476" y="750.0"/>
      <point x="522.5522470519251" y="750.0" type="curve"/>
      <point x="512.5522470519251" y="750.0" type="line"/>
      <point x="465.55224705192506" y="750.0"/>
      <point x="415.89682309582406" y="733.47658168834"/>
      <point x="370.29855492692235" y="697.0" type="curve" smooth="yes"/>
      <point x="354.04764931135566" y="684.0"/>
      <point x="352.29576841748633" y="657.0"/>
    </contour>
    <contour>
      <point x="200.0" y="0.0" type="line"/>
      <point x="241.51156401415943" y="166.0"/>
      <point x="283.52326735379063" y="334.0"/>
      <point x="325.03483136795006" y="500.0" type="curve" smooth="yes"/>
      <point x="355.29326055899395" y="621.0"/>
      <point x="360.54416617456064" y="634.0"/>
      <point x="429.5489032406019" y="702.0" type="curve"/>
      <point x="422.29966953069675" y="713.0"/>
      <point x="385.29939087975316" y="709.0"/>
      <point x="370.29855492692235" y="697.0" type="curve" smooth="yes"/>
      <point x="331.5463953821095" y="666.0"/>
      <point x="307.0437481981453" y="628.0"/>
      <point x="285.53775720285785" y="542.0" type="curve"/>
      <point x="241.27542689860354" y="365.0"/>
      <point x="197.01309659434924" y="188.0"/>
      <point x="152.7507662900949" y="11.0" type="curve" smooth="yes"/>
      <point x="152.0005573018872" y="8.0"/>
      <point x="152.2503483136795" y="5.0"/>
      <point x="153.7502089882077" y="3.0" type="curve" smooth="yes"/>
      <point x="155.2500696627359" y="1.0"/>
      <point x="158.0" y="0.0"/>
      <point x="161.0" y="0.0" type="curve" smooth="yes"/>
    </contour>
    <contour>
      <point x="145.03483136795006" y="500.0" type="curve"/>
      <point x="135.28211452124992" y="461.0" type="line" smooth="yes"/>
      <point x="134.53190553304222" y="458.0"/>
      <point x="134.78169654483455" y="455.0"/>
      <point x="136.28155721936275" y="453.0" type="curve" smooth="yes"/>
      <point x="137.78141789389093" y="451.0"/>
      <point x="140.53134823115505" y="450.0"/>
      <point x="143.53134823115505" y="450.0" type="curve" smooth="yes"/>
      <point x="197.53134823115505" y="450.0"/>
      <point x="218.53134823115505" y="450.0"/>
      <point x="272.53134823115505" y="450.0" type="curve"/>
      <point x="286.53134823115505" y="450.0"/>
      <point x="534.531348231155" y="450.0"/>
      <point x="542.531348231155" y="450.0" type="curve"/>
      <point x="552.2840650778552" y="489.0" type="line" smooth="yes"/>
      <point x="553.0342740660628" y="492.0"/>
      <point x="552.7844830542706" y="495.0"/>
      <point x="551.2846223797424" y="497.0" type="curve" smooth="yes"/>
      <point x="549.7847617052141" y="499.0"/>
      <point x="547.03483136795" y="500.0"/>
      <point x="544.03483136795" y="500.0" type="curve" smooth="yes"/>
      <point x="466.03483136795" y="500.0"/>
      <point x="223.03483136795006" y="500.0"/>
    </contour>
  </outline>
</glyph>
<glyph name="j" format="2">
  <advance width="600"/>
  <unicode hex="006A"/>
  <guideline x="-70.0" y="0" angle="179.2032303972546" identifier="OHHgynk3Cq"/>
  <guideline x="-20.0" y="0" angle="179.2032303972546" identifier="X847Hj8ELc"/>
  <guideline x="30.0" y="0" angle="179.2032303972546" identifier="N4tmMPBNwA"/>
  <guideline x="80.0" y="0" angle="179.2032303972546" identifier="s3oC46onu1"/>
  <guideline x="130.0" y="0" angle="179.2032303972546" identifier="wT8wLfL7zQ"/>
  <guideline x="180.0" y="0" angle="179.2032303972546" identifier="aZZWCKB5JM"/>
  <guideline x="230.0" y="0" angle="179.2032303972546" identifier="pSoIDL12QM"/>
  <guideline x="280.0" y="0" angle="179.2032303972546" identifier="YNF4wZ5fuT"/>
  <guideline x="330.0" y="0" angle="179.2032303972546" identifier="hDE4pftHqi"/>
  <guideline x="380.0" y="0" angle="179.2032303972546" identifier="h5Le0Ook0k"/>
  <guideline x="430.0" y="0" angle="179.2032303972546" identifier="uW8CXwySvy"/>
  <guideline x="480.0" y="0" angle="179.2032303972546" identifier="X2KB3iXgEY"/>
  <guideline x="530.0" y="0" angle="179.2032303972546" identifier="3RhBpLP5J8"/>
  <guideline x="-132.51741568397503" y="-250.0" angle="180.0" identifier="pR5K6rgKT9"/>
  <guideline x="-120.01393254718002" y="-200.0" angle="180.0" identifier="i5q2PYG8tt"/>
  <guideline x="-107.51044941038501" y="-150.0" angle="180.0" identifier="1iem8hxIqY"/>
  <guideline x="-95.00696627359001" y="-100.0" angle="180.0" identifier="yBms4dR05n"/>
  <guideline x="-82.50348313679501" y="-50.0" angle="180.0" identifier="j9ehwfrlRl"/>
  <guideline x="-70.0" y="0" angle="180.0" identifier="wAoaO7TSDn"/>
  <guideline x="-57.496516863204995" y="50.0" angle="180.0" identifier="FzugwgneWK"/>
  <guideline x="-44.99303372640999" y="100.0" angle="180.0" identifier="Jrumk8o7UU"/>
  <guideline x="-32.489550589614986" y="150.0" angle="180.0" identifier="WUT4OsRqpY"/>
  <guideline x="-19.98606745281998" y="200.0" angle="180.0" identifier="EeDP7kPLAY"/>
  <guideline x="-7.482584316024976" y="250.0" angle="180.0" identifier="SrDiuYwr9z"/>
  <guideline x="5.020898820770029" y="300.0" angle="180.0" identifier="7om52FvD6d"/>
  <guideline x="17.524381957565026" y="350.0" angle="180.0" identifier="bBq9lwyqxD"/>
  <guideline x="30.02786509436004" y="400.0" angle="180.0" identifier="ossqKe5Kbs"/>
  <guideline x="42.531348231155036" y="450.0" angle="180.0" identifier="dGLXuy31oi"/>
  <guideline x="55.03483136795005" y="500.0" angle="180.0" identifier="y3oZOY2nyL"/>
  <guideline x="67.53831450474505" y="550.0" angle="180.0" identifier="N9LPgJj2ka"/>
  <guideline x="80.04179764154006" y="600.0" angle="180.0" identifier="ATL9Sy1jnP"/>
  <guideline x="92.54528077833507" y="650.0" angle="180.0" identifier="3dhnJwVjB4"/>
  <guideline x="105.04876391513005" y="700.0" angle="180.0" identifier="e71YVEivsh"/>
  <outline>
    <contour>
      <point x="135.03483136795006" y="500.0" type="curve"/>
      <point x="125.28211452124992" y="461.0" type="line" smooth="yes"/>
      <point x="124.53190553304222" y="458.0"/>
      <point x="124.78169654483455" y="455.0"/>
      <point x="126.28155721936275" y="453.0" type="curve" smooth="yes"/>
      <point x="127.78141789389093" y="451.0"/>
      <point x="130.53134823115505" y="450.0"/>
      <point x="133.53134823115505" y="450.0" type="curve" smooth="yes"/>
      <point x="195.53134823115505" y="450.0"/>
      <point x="276.53134823115505" y="450.0"/>
      <point x="338.53134823115505" y="450.0" type="curve" smooth="yes"/>
      <point x="369.53134823115505" y="450.0"/>
      <point x="399.53134823115505" y="450.0"/>
      <point x="430.53134823115505" y="450.0" type="curve"/>
      <point x="440.28406507785513" y="489.0" type="line" smooth="yes"/>
      <point x="441.03427406606284" y="492.0"/>
      <point x="440.78448305427054" y="495.0"/>
      <point x="439.28462237974236" y="497.0" type="curve" smooth="yes"/>
      <point x="437.7847617052141" y="499.0"/>
      <point x="435.03483136795006" y="500.0"/>
      <point x="432.03483136795006" y="500.0" type="curve" smooth="yes"/>
      <point x="340.03483136795006" y="500.0"/>
      <point x="227.03483136795006" y="500.0"/>
    </contour>
    <contour>
      <point x="355.0" y="0.0" type="curve" smooth="yes"/>
      <point x="394.5110067122722" y="158.0"/>
      <point x="434.7722224127521" y="319.0"/>
      <point x="474.2832291250244" y="477.0" type="curve" smooth="yes"/>
      <point x="475.5335774387038" y="482.0"/>
      <point x="474.53385608964743" y="486.0"/>
      <point x="472.2840650778552" y="489.0" type="curve" smooth="yes"/>
      <point x="466.28462237974236" y="497.0"/>
      <point x="456.03483136795" y="500.0"/>
      <point x="440.03483136795006" y="500.0" type="curve" smooth="yes"/>
      <point x="430.03483136795006" y="500.0" type="line"/>
      <point x="405.52800441983186" y="402.0"/>
      <point x="367.517415683975" y="250.0"/>
      <point x="356.2642808608595" y="205.0" type="curve" smooth="yes"/>
      <point x="339.25954379481834" y="137.0"/>
      <point x="322.00473706604123" y="68.0"/>
      <point x="305.0" y="0.0" type="curve" smooth="yes"/>
      <point x="276.99219777357916" y="-112.0"/>
      <point x="248.74045620518166" y="-137.0"/>
      <point x="154.48564947640457" y="-206.0" type="curve"/>
      <point x="186.4856494764046" y="-206.0"/>
      <point x="222.98578880187637" y="-204.0"/>
      <point x="241.73683374291488" y="-189.0" type="curve" smooth="yes"/>
      <point x="290.48955058961496" y="-150.0"/>
      <point x="332.7438000165049" y="-89.0"/>
    </contour>
    <contour>
      <point x="71.98606745281998" y="-200.0" type="curve" smooth="yes"/>
      <point x="27.98606745281998" y="-200.0"/>
      <point x="-10.263444908028717" y="-193.0"/>
      <point x="-41.76219097878251" y="-175.0" type="curve"/>
      <point x="-53.76219097878251" y="-175.0" type="line"/>
      <point x="-64.01504715095442" y="-216.0" type="line" smooth="yes"/>
      <point x="-65.01532580189803" y="-220.0"/>
      <point x="-64.51546512736982" y="-222.0"/>
      <point x="-63.01560445284162" y="-224.0" type="curve" smooth="yes"/>
      <point x="-51.76664939388012" y="-239.0"/>
      <point x="4.482584316024969" y="-250.0"/>
      <point x="59.48258431602497" y="-250.0" type="curve" smooth="yes"/>
      <point x="64.48258431602497" y="-250.0" type="line" smooth="yes"/>
      <point x="112.48258431602497" y="-250.0"/>
      <point x="176.73321128064808" y="-241.0"/>
      <point x="241.73683374291488" y="-189.0" type="curve" smooth="yes"/>
      <point x="251.73739104480205" y="-181.0"/>
      <point x="269.4903865424458" y="-138.0"/>
      <point x="270.4915011462202" y="-122.0" type="curve"/>
      <point x="190.73711239385847" y="-185.0"/>
      <point x="145.98606745281998" y="-200.0"/>
    </contour>
    <contour>
      <point x="532.545280778335" y="650.0" type="line"/>
      <point x="549.8000875071122" y="719.0" type="line" smooth="yes"/>
      <point x="550.5502964953198" y="722.0"/>
      <point x="550.3005054835276" y="725.0"/>
      <point x="548.8006448089993" y="727.0" type="curve" smooth="yes"/>
      <point x="547.3007841344712" y="729.0"/>
      <point x="544.5508537972071" y="730.0"/>
      <point x="541.5508537972071" y="730.0" type="curve" smooth="yes"/>
      <point x="472.5508537972071" y="730.0" type="line"/>
      <point x="455.29604706842997" y="661.0" type="line" smooth="yes"/>
      <point x="454.5458380802222" y="658.0"/>
      <point x="454.79562909201456" y="655.0"/>
      <point x="456.2954897665428" y="653.0" type="curve" smooth="yes"/>
      <point x="457.7953504410709" y="651.0"/>
      <point x="460.54528077833504" y="650.0"/>
      <point x="463.54528077833504" y="650.0" type="curve" smooth="yes"/>
    </contour>
  </outline>
</glyph>
<glyph name="k" format="2">
  <advance width="600"/>
  <unicode hex="006B"/>
  <outline>
    <contour>
      <point x="90.0" y="0.0" type="line"/>
      <point x="164.77082915803413" y="299.0"/>
      <point x="200.03065160379606" y="440.0"/>
      <point x="274.80148076183013" y="739.0" type="curve" smooth="yes"/>
      <point x="275.5516897500379" y="742.0"/>
      <point x="275.30189873824554" y="745.0"/>
      <point x="273.80203806371736" y="747.0" type="curve" smooth="yes"/>
      <point x="272.3021773891892" y="749.0"/>
      <point x="269.55224705192506" y="750.0"/>
      <point x="266.55224705192506" y="750.0" type="curve" smooth="yes"/>
      <point x="227.55224705192506" y="750.0" type="line"/>
      <point x="211.04764931135566" y="684.0"/>
      <point x="108.76915725237251" y="275.0"/>
      <point x="80.51128536321582" y="162.0" type="curve" smooth="yes"/>
      <point x="64.75689661085411" y="99.0"/>
      <point x="58.50515504245661" y="74.0"/>
      <point x="42.7507662900949" y="11.0" type="curve" smooth="yes"/>
      <point x="42.0005573018872" y="8.0"/>
      <point x="42.250348313679496" y="5.0"/>
      <point x="43.7502089882077" y="3.0" type="curve" smooth="yes"/>
      <point x="45.250069662735896" y="1.0"/>
      <point x="48.0" y="0.0"/>
      <point x="51.0" y="0.0" type="curve" smooth="yes"/>
    </contour>
    <contour>
      <point x="574.03483136795" y="500.0" type="curve" smooth="yes"/>
      <point x="519.03483136795" y="500.0" type="line"/>
      <point x="378.27765610615234" y="397.0"/>
      <point x="236.5204808443546" y="294.0"/>
      <point x="95.76330558255691" y="191.0" type="curve"/>
      <point x="92.76246962972613" y="179.0"/>
      <point x="91.75940446934652" y="135.0"/>
      <point x="116.0105887358568" y="152.0" type="curve" smooth="yes"/>
      <point x="268.26818197406993" y="261.0"/>
      <point x="405.2751482476599" y="361.0"/>
      <point x="568.033438113232" y="480.0" type="curve" smooth="yes"/>
      <point x="577.7839257523833" y="487.0"/>
      <point x="579.5341347405911" y="490.0"/>
      <point x="580.0342740660628" y="492.0" type="curve" smooth="yes"/>
      <point x="581.0345527170065" y="496.0"/>
      <point x="579.03483136795" y="500.0"/>
    </contour>
    <contour>
      <point x="273.27096848350595" y="301.0" type="line"/>
      <point x="247.2698538797315" y="285.0"/>
      <point x="228.5185302877494" y="266.0"/>
      <point x="233.51797298586223" y="258.0" type="curve" smooth="yes"/>
      <point x="361.503483136795" y="50.0" type="line" smooth="yes"/>
      <point x="384.7507662900949" y="11.0"/>
      <point x="411.0" y="0.0"/>
      <point x="459.0" y="0.0" type="curve" smooth="yes"/>
      <point x="462.0" y="0.0"/>
      <point x="465.2500696627359" y="1.0"/>
      <point x="467.75020898820765" y="3.0" type="curve" smooth="yes"/>
      <point x="470.2503483136795" y="5.0"/>
      <point x="472.00055730188717" y="8.0"/>
      <point x="472.75076629009493" y="11.0" type="curve" smooth="yes"/>
      <point x="482.503483136795" y="50.0" type="line"/>
      <point x="472.503483136795" y="50.0" type="line"/>
      <point x="470.503483136795" y="50.0"/>
      <point x="466.503483136795" y="50.0"/>
      <point x="462.503483136795" y="50.0" type="curve" smooth="yes"/>
      <point x="435.503483136795" y="50.0"/>
      <point x="424.0039011132104" y="56.0"/>
      <point x="412.7552247051925" y="75.0" type="curve" smooth="yes"/>
    </contour>
  </outline>
</glyph>
<glyph name="l" format="2">
  <advance width="600"/>
  <unicode hex="006C"/>
  <guideline x="-70.0" y="0" angle="179.2032303972546" identifier="2Nn7EbDWvT"/>
  <guideline x="-20.0" y="0" angle="179.2032303972546" identifier="qpRoINnEMN"/>
  <guideline x="30.0" y="0" angle="179.2032303972546" identifier="gSLCSOXR1G"/>
  <guideline x="80.0" y="0" angle="179.2032303972546" identifier="W7M9u32xSH"/>
  <guideline x="130.0" y="0" angle="179.2032303972546" identifier="7ZU9JT2bv2"/>
  <guideline x="180.0" y="0" angle="179.2032303972546" identifier="7WhDKgbEVz"/>
  <guideline x="230.0" y="0" angle="179.2032303972546" identifier="MRgcUfrfxt"/>
  <guideline x="280.0" y="0" angle="179.2032303972546" identifier="Pj0hyTzpLM"/>
  <guideline x="330.0" y="0" angle="179.2032303972546" identifier="hptVaSlVew"/>
  <guideline x="380.0" y="0" angle="179.2032303972546" identifier="DNNI9dkBfc"/>
  <guideline x="430.0" y="0" angle="179.2032303972546" identifier="6Lm0cMswB7"/>
  <guideline x="480.0" y="0" angle="179.2032303972546" identifier="xJ9wIQ80wy"/>
  <guideline x="530.0" y="0" angle="179.2032303972546" identifier="0giUGrW7DN"/>
  <guideline x="-132.51741568397503" y="-250.0" angle="180.0" identifier="IJTpHZxebk"/>
  <guideline x="-120.01393254718002" y="-200.0" angle="180.0" identifier="wrIP2w9btq"/>
  <guideline x="-107.51044941038501" y="-150.0" angle="180.0" identifier="7Xx7HOhPVX"/>
  <guideline x="-95.00696627359001" y="-100.0" angle="180.0" identifier="C1Ah3qNTZv"/>
  <guideline x="-82.50348313679501" y="-50.0" angle="180.0" identifier="XQLqSlkYRG"/>
  <guideline x="-70.0" y="0" angle="180.0" identifier="x3GZ2OJMn3"/>
  <guideline x="-57.496516863204995" y="50.0" angle="180.0" identifier="BRAMF9FCs0"/>
  <guideline x="-44.99303372640999" y="100.0" angle="180.0" identifier="Z5uPbmIDhr"/>
  <guideline x="-32.489550589614986" y="150.0" angle="180.0" identifier="bfwYtaYKrO"/>
  <guideline x="-19.98606745281998" y="200.0" angle="180.0" identifier="xvPibGfxoV"/>
  <guideline x="-7.482584316024976" y="250.0" angle="180.0" identifier="hTBGd6iDob"/>
  <guideline x="5.020898820770029" y="300.0" angle="180.0" identifier="5RZ1RTANWM"/>
  <guideline x="17.524381957565026" y="350.0" angle="180.0" identifier="F2hKG4Hki1"/>
  <guideline x="30.02786509436004" y="400.0" angle="180.0" identifier="Dmk69ffTiL"/>
  <guideline x="42.531348231155036" y="450.0" angle="180.0" identifier="1nQTq63kW1"/>
  <guideline x="55.03483136795005" y="500.0" angle="180.0" identifier="rQd5c7bo2B"/>
  <guideline x="67.53831450474505" y="550.0" angle="180.0" identifier="E4zWqIqkYZ"/>
  <guideline x="80.04179764154006" y="600.0" angle="180.0" identifier="U0uwY4cOm2"/>
  <guideline x="92.54528077833507" y="650.0" angle="180.0" identifier="2CHKTxYxUG"/>
  <guideline x="105.04876391513005" y="700.0" angle="180.0" identifier="5ujE7nW29A"/>
  <outline>
    <contour>
      <point x="197.55224705192506" y="750.0" type="curve"/>
      <point x="187.79953020522498" y="711.0" type="line" smooth="yes"/>
      <point x="187.04932121701722" y="708.0"/>
      <point x="187.29911222880958" y="705.0"/>
      <point x="188.79897290333776" y="703.0" type="curve" smooth="yes"/>
      <point x="190.29883357786593" y="701.0"/>
      <point x="193.04876391513005" y="700.0"/>
      <point x="196.04876391513005" y="700.0" type="curve" smooth="yes"/>
      <point x="267.04876391513005" y="700.0"/>
      <point x="376.2840580327771" y="700.0"/>
      <point x="418.04876391513005" y="700.0" type="curve"/>
      <point x="427.80148076183013" y="739.0" type="line" smooth="yes"/>
      <point x="428.5516897500379" y="742.0"/>
      <point x="428.30189873824554" y="745.0"/>
      <point x="426.80203806371736" y="747.0" type="curve" smooth="yes"/>
      <point x="425.3021773891892" y="749.0"/>
      <point x="422.55224705192506" y="750.0"/>
      <point x="419.55224705192506" y="750.0" type="curve" smooth="yes"/>
      <point x="331.55224705192506" y="750.0"/>
      <point x="285.55224705192506" y="750.0"/>
    </contour>
    <contour>
      <point x="443.8020380637174" y="747.0" type="curve" smooth="yes"/>
      <point x="442.3021773891892" y="749.0"/>
      <point x="439.55224705192506" y="750.0"/>
      <point x="436.55224705192506" y="750.0" type="curve" smooth="yes"/>
      <point x="397.55224705192506" y="750.0" type="line"/>
      <point x="246.01003143396963" y="144.0" type="line" smooth="yes"/>
      <point x="235.5071055990618" y="102.0"/>
      <point x="228.25424942688988" y="61.0"/>
      <point x="250.0022292075488" y="32.0" type="curve"/>
      <point x="259.7513235919821" y="19.0"/>
      <point x="276.7518808938693" y="27.0"/>
      <point x="304.2536921250027" y="53.0" type="curve"/>
      <point x="280.504876391513" y="70.0"/>
      <point x="285.5071055990618" y="102.0"/>
      <point x="293.5093348066106" y="134.0" type="curve" smooth="yes"/>
      <point x="444.80148076183013" y="739.0" type="line" smooth="yes"/>
      <point x="445.5516897500379" y="742.0"/>
      <point x="445.30189873824554" y="745.0"/>
    </contour>
    <contour>
      <point x="462.503483136795" y="50.0" type="line"/>
      <point x="452.503483136795" y="50.0" type="line"/>
      <point x="429.503483136795" y="50.0"/>
      <point x="427.503483136795" y="50.0"/>
      <point x="356.503483136795" y="50.0" type="curve" smooth="yes"/>
      <point x="324.503483136795" y="50.0"/>
      <point x="293.7538314504745" y="55.0"/>
      <point x="282.2556426816079" y="81.0" type="curve"/>
      <point x="250.50404043868218" y="58.0"/>
      <point x="238.7532741485873" y="47.0"/>
      <point x="250.0022292075488" y="32.0" type="curve" smooth="yes"/>
      <point x="271.7502089882077" y="3.0"/>
      <point x="312.0" y="0.0"/>
      <point x="354.0" y="0.0" type="curve" smooth="yes"/>
      <point x="439.0" y="0.0" type="line" smooth="yes"/>
      <point x="442.0" y="0.0"/>
      <point x="445.2500696627359" y="1.0"/>
      <point x="447.75020898820765" y="3.0" type="curve" smooth="yes"/>
      <point x="450.2503483136795" y="5.0"/>
      <point x="451.7504876391513" y="7.0"/>
      <point x="452.75076629009493" y="11.0" type="curve" smooth="yes"/>
    </contour>
  </outline>
</glyph>
<glyph name="m" format="2">
  <advance width="600"/>
  <unicode hex="006D"/>
  <guideline x="181.01532580189803" y="220" angle="180.0" identifier="4PygMyLTME"/>
  <outline>
    <contour>
      <point x="40.0" y="0.0" type="line"/>
      <point x="80.01114603774403" y="160.0"/>
      <point x="103.01755500944682" y="252.0"/>
      <point x="136.52688981605743" y="386.0" type="curve"/>
      <point x="162.28406507785513" y="489.0" type="line"/>
      <point x="163.03427406606284" y="492.0"/>
      <point x="162.78448305427054" y="495.0"/>
      <point x="161.28462237974236" y="497.0" type="curve" smooth="yes"/>
      <point x="159.78476170521412" y="499.0"/>
      <point x="157.03483136795006" y="500.0"/>
      <point x="154.03483136795006" y="500.0" type="curve" smooth="yes"/>
      <point x="115.03483136795006" y="500.0" type="line"/>
      <point x="105.53218418398586" y="462.0"/>
      <point x="46.76581344104932" y="227.0"/>
      <point x="30.51128536321582" y="162.0" type="curve" smooth="yes"/>
      <point x="14.756896610854113" y="99.0"/>
      <point x="8.505155042456607" y="74.0"/>
      <point x="-7.2492337099050985" y="11.0" type="curve" smooth="yes"/>
      <point x="-7.9994426981128015" y="8.0"/>
      <point x="-7.749651686320497" y="5.0"/>
      <point x="-6.249791011792297" y="3.0" type="curve" smooth="yes"/>
      <point x="-4.749930337264104" y="1.0"/>
      <point x="-2.0" y="0.0"/>
      <point x="1.0" y="0.0" type="curve" smooth="yes"/>
    </contour>
    <contour>
      <point x="374.2832291250244" y="477.0"/>
      <point x="349.03622462266804" y="520.0"/>
      <point x="305.03622462266804" y="520.0" type="curve" smooth="yes"/>
      <point x="249.03622462266804" y="520.0"/>
      <point x="197.03315946228844" y="476.0"/>
      <point x="136.77835273351133" y="407.0" type="curve" smooth="yes"/>
      <point x="117.02675049058564" y="384.0"/>
      <point x="101.02479993398043" y="356.0"/>
      <point x="109.52298870284704" y="330.0" type="curve"/>
      <point x="191.27960666275754" y="425.0"/>
      <point x="239.53274148587303" y="470.0"/>
      <point x="286.53274148587303" y="470.0" type="curve" smooth="yes"/>
      <point x="311.53274148587303" y="470.0"/>
      <point x="318.53162688209864" y="454.0"/>
      <point x="311.27877070992673" y="413.0" type="curve"/>
      <point x="355.02870104719085" y="412.0"/>
      <point x="359.2790493608703" y="417.0"/>
      <point x="360.27932801181396" y="421.0" type="curve" smooth="yes"/>
    </contour>
    <contour>
      <point x="255.0" y="0.0" type="line"/>
      <point x="297.511842665103" y="170.0"/>
      <point x="317.76748534671094" y="251.0"/>
      <point x="360.27932801181396" y="421.0" type="curve" smooth="yes"/>
      <point x="366.2809999174755" y="445.0"/>
      <point x="358.78253249766533" y="467.0"/>
      <point x="321.78253249766533" y="467.0" type="curve"/>
      <point x="313.53023362738065" y="434.0"/>
      <point x="260.2653954646339" y="221.0"/>
      <point x="245.5112853632158" y="162.0" type="curve" smooth="yes"/>
      <point x="229.75689661085408" y="99.0"/>
      <point x="223.50515504245664" y="74.0"/>
      <point x="207.75076629009487" y="11.0" type="curve" smooth="yes"/>
      <point x="207.00055730188723" y="8.0"/>
      <point x="207.25034831367952" y="5.0"/>
      <point x="208.7502089882077" y="3.0" type="curve" smooth="yes"/>
      <point x="210.25006966273588" y="1.0"/>
      <point x="213.0" y="0.0"/>
      <point x="216.0" y="0.0" type="curve" smooth="yes"/>
    </contour>
    <contour>
      <point x="589.2832291250244" y="477.0"/>
      <point x="564.036224622668" y="520.0"/>
      <point x="520.036224622668" y="520.0" type="curve" smooth="yes"/>
      <point x="464.036224622668" y="520.0"/>
      <point x="412.03315946228844" y="476.0"/>
      <point x="351.7783527335113" y="407.0" type="curve" smooth="yes"/>
      <point x="332.02675049058564" y="384.0"/>
      <point x="316.02479993398043" y="356.0"/>
      <point x="324.52298870284704" y="330.0" type="curve"/>
      <point x="406.27960666275754" y="425.0"/>
      <point x="454.5327414858731" y="470.0"/>
      <point x="501.5327414858731" y="470.0" type="curve" smooth="yes"/>
      <point x="526.5327414858731" y="470.0"/>
      <point x="533.5316268820986" y="454.0"/>
      <point x="526.2787707099267" y="413.0" type="curve"/>
      <point x="570.0287010471908" y="412.0"/>
      <point x="574.2790493608703" y="417.0"/>
      <point x="575.279328011814" y="421.0" type="curve" smooth="yes"/>
    </contour>
    <contour>
      <point x="470.0" y="0.0" type="line"/>
      <point x="512.511842665103" y="170.0"/>
      <point x="532.7674853467109" y="251.0"/>
      <point x="575.279328011814" y="421.0" type="curve" smooth="yes"/>
      <point x="581.2809999174756" y="445.0"/>
      <point x="573.7825324976653" y="467.0"/>
      <point x="536.7825324976653" y="467.0" type="curve"/>
      <point x="528.5302336273807" y="434.0"/>
      <point x="475.2653954646339" y="221.0"/>
      <point x="460.51128536321585" y="162.0" type="curve" smooth="yes"/>
      <point x="444.75689661085414" y="99.0"/>
      <point x="438.50515504245664" y="74.0"/>
      <point x="422.7507662900949" y="11.0" type="curve" smooth="yes"/>
      <point x="422.0005573018872" y="8.0"/>
      <point x="422.2503483136795" y="5.0"/>
      <point x="423.7502089882077" y="3.0" type="curve" smooth="yes"/>
      <point x="425.2500696627359" y="1.0"/>
      <point x="428.0" y="0.0"/>
      <point x="431.0" y="0.0" type="curve" smooth="yes"/>
    </contour>
  </outline>
</glyph>
<glyph name="n" format="2">
  <advance width="600"/>
  <unicode hex="006E"/>
  <outline>
    <contour>
      <point x="85.0" y="0.0" type="line"/>
      <point x="134.51379322170823" y="198.0"/>
      <point x="157.7702718561469" y="291.0"/>
      <point x="207.28406507785513" y="489.0" type="curve" smooth="yes"/>
      <point x="208.03427406606284" y="492.0"/>
      <point x="207.78448305427054" y="495.0"/>
      <point x="206.28462237974236" y="497.0" type="curve" smooth="yes"/>
      <point x="204.78476170521412" y="499.0"/>
      <point x="202.03483136795006" y="500.0"/>
      <point x="199.03483136795006" y="500.0" type="curve" smooth="yes"/>
      <point x="160.03483136795006" y="500.0" type="line"/>
      <point x="150.53218418398586" y="462.0"/>
      <point x="91.76581344104932" y="227.0"/>
      <point x="75.51128536321582" y="162.0" type="curve" smooth="yes"/>
      <point x="59.75689661085411" y="99.0"/>
      <point x="53.50515504245661" y="74.0"/>
      <point x="37.7507662900949" y="11.0" type="curve" smooth="yes"/>
      <point x="37.0005573018872" y="8.0"/>
      <point x="37.250348313679496" y="5.0"/>
      <point x="38.7502089882077" y="3.0" type="curve" smooth="yes"/>
      <point x="40.250069662735896" y="1.0"/>
      <point x="43.0" y="0.0"/>
      <point x="46.0" y="0.0" type="curve" smooth="yes"/>
    </contour>
    <contour>
      <point x="538.2815572193628" y="453.0"/>
      <point x="495.036224622668" y="520.0"/>
      <point x="415.03622462266804" y="520.0" type="curve" smooth="yes"/>
      <point x="333.03622462266804" y="520.0"/>
      <point x="263.033438113232" y="480.0"/>
      <point x="190.52939767454984" y="422.0" type="curve" smooth="yes"/>
      <point x="166.77807408256774" y="403.0"/>
      <point x="155.77612352596253" y="375.0"/>
      <point x="149.02368533020604" y="340.0" type="curve"/>
      <point x="256.53023362738065" y="434.0"/>
      <point x="329.53274148587303" y="470.0"/>
      <point x="400.53274148587303" y="470.0" type="curve" smooth="yes"/>
      <point x="451.5327414858731" y="470.0"/>
      <point x="486.27988531370113" y="429.0"/>
      <point x="467.27459094577273" y="353.0" type="curve"/>
      <point x="509.7747302712445" y="355.0"/>
      <point x="517.2757055495472" y="369.0"/>
      <point x="520.276541502378" y="381.0" type="curve" smooth="yes"/>
    </contour>
    <contour>
      <point x="425.0" y="0.0" type="line"/>
      <point x="463.51072806132856" y="154.0"/>
      <point x="481.7658134410493" y="227.0"/>
      <point x="520.276541502378" y="381.0" type="curve" smooth="yes"/>
      <point x="526.2782134080395" y="405.0"/>
      <point x="518.7797459882294" y="427.0"/>
      <point x="481.77974598822937" y="427.0" type="curve"/>
      <point x="474.5277257688882" y="398.0"/>
      <point x="428.26483816274674" y="213.0"/>
      <point x="415.5112853632158" y="162.0" type="curve" smooth="yes"/>
      <point x="399.7568966108541" y="99.0"/>
      <point x="393.50515504245664" y="74.0"/>
      <point x="377.7507662900949" y="11.0" type="curve" smooth="yes"/>
      <point x="377.0005573018872" y="8.0"/>
      <point x="377.2503483136795" y="5.0"/>
      <point x="378.7502089882077" y="3.0" type="curve" smooth="yes"/>
      <point x="380.2500696627359" y="1.0"/>
      <point x="383.0" y="0.0"/>
      <point x="386.0" y="0.0" type="curve" smooth="yes"/>
    </contour>
  </outline>
</glyph>
<glyph name="o" format="2">
  <advance width="600"/>
  <unicode hex="006F"/>
  <outline>
    <contour>
      <point x="360.03622462266804" y="520.0" type="curve" smooth="yes"/>
      <point x="236.03622462266804" y="520.0"/>
      <point x="110.02925834907802" y="420.0"/>
      <point x="76.26985387973153" y="285.0" type="curve" smooth="yes"/>
      <point x="53.763584233500524" y="195.0" type="line" smooth="yes"/>
      <point x="24.0052943679284" y="76.0"/>
      <point x="87.99860674528199" y="-20.0"/>
      <point x="212.99860674528202" y="-20.0" type="curve" smooth="yes"/>
      <point x="224.99860674528202" y="-20.0" type="line" smooth="yes"/>
      <point x="239.99860674528202" y="-20.0"/>
      <point x="247.49986067452818" y="-2.0"/>
      <point x="250.500696627359" y="10.0" type="curve"/>
      <point x="89.502089882077" y="30.0"/>
      <point x="91.26010109670551" y="145.0"/>
      <point x="105.51407187265181" y="202.0" type="curve" smooth="yes"/>
      <point x="126.26985387973153" y="285.0" type="line" smooth="yes"/>
      <point x="148.27598420049074" y="373.0"/>
      <point x="235.53274148587303" y="470.0"/>
      <point x="356.53274148587303" y="470.0" type="curve" smooth="yes"/>
      <point x="399.53274148587303" y="470.0"/>
      <point x="435.5319055330422" y="458.0"/>
      <point x="467.5307909292678" y="442.0" type="curve"/>
      <point x="473.5307909292678" y="442.0"/>
      <point x="477.78113924294735" y="447.0"/>
      <point x="479.28155721936275" y="453.0" type="curve"/>
      <point x="485.78336845049614" y="479.0"/>
      <point x="437.03622462266804" y="520.0"/>
    </contour>
    <contour>
      <point x="224.99860674528202" y="-20.0" type="curve" smooth="yes"/>
      <point x="348.998606745282" y="-20.0"/>
      <point x="475.00557301887204" y="80.0"/>
      <point x="508.7649774882185" y="215.0" type="curve" smooth="yes"/>
      <point x="531.2712471344495" y="305.0" type="line" smooth="yes"/>
      <point x="561.0295370000216" y="424.0"/>
      <point x="497.036224622668" y="520.0"/>
      <point x="372.03622462266804" y="520.0" type="curve" smooth="yes"/>
      <point x="360.03622462266804" y="520.0" type="line" smooth="yes"/>
      <point x="345.03622462266804" y="520.0"/>
      <point x="337.5349706934218" y="502.0"/>
      <point x="334.53413474059107" y="490.0" type="curve"/>
      <point x="495.5327414858731" y="470.0"/>
      <point x="493.7747302712445" y="355.0"/>
      <point x="479.5207594952982" y="298.0" type="curve" smooth="yes"/>
      <point x="458.7649774882185" y="215.0" type="line" smooth="yes"/>
      <point x="436.7588471674593" y="127.0"/>
      <point x="349.50208988207703" y="30.0"/>
      <point x="228.50208988207703" y="30.0" type="curve" smooth="yes"/>
      <point x="185.502089882077" y="30.0"/>
      <point x="149.5029258349078" y="42.0"/>
      <point x="117.50404043868221" y="58.0" type="curve"/>
      <point x="111.50404043868221" y="58.0"/>
      <point x="107.25369212500271" y="53.0"/>
      <point x="105.75327414858731" y="47.0" type="curve"/>
      <point x="99.25146291745389" y="21.0"/>
      <point x="147.998606745282" y="-20.0"/>
    </contour>
  </outline>
</glyph>
<glyph name="q" format="2">
  <advance width="600"/>
  <unicode hex="0071"/>
  <guideline x="-70.0" y="0" angle="179.2032303972546" identifier="4hoQmcvR07"/>
  <guideline x="-20.0" y="0" angle="179.2032303972546" identifier="z4dMDZGbTH"/>
  <guideline x="30.0" y="0" angle="179.2032303972546" identifier="M35xe3DgV4"/>
  <guideline x="80.0" y="0" angle="179.2032303972546" identifier="J840pGxZ69"/>
  <guideline x="130.0" y="0" angle="179.2032303972546" identifier="4GI8KHw3KY"/>
  <guideline x="180.0" y="0" angle="179.2032303972546" identifier="n84R3xzWxX"/>
  <guideline x="230.0" y="0" angle="179.2032303972546" identifier="IaxZ3aZJyb"/>
  <guideline x="280.0" y="0" angle="179.2032303972546" identifier="dp8QrEqgpP"/>
  <guideline x="330.0" y="0" angle="179.2032303972546" identifier="D9IEWRtZNW"/>
  <guideline x="380.0" y="0" angle="179.2032303972546" identifier="ctk8GWZVJC"/>
  <guideline x="430.0" y="0" angle="179.2032303972546" identifier="q4aTldCMoz"/>
  <guideline x="480.0" y="0" angle="179.2032303972546" identifier="fd3TJ0ztc5"/>
  <guideline x="530.0" y="0" angle="179.2032303972546" identifier="rOgnFHuaEP"/>
  <guideline x="-132.51741568397503" y="-250.0" angle="180.0" identifier="1FdmsCwoiM"/>
  <guideline x="-120.01393254718002" y="-200.0" angle="180.0" identifier="9s0rE3oqdh"/>
  <guideline x="-107.51044941038501" y="-150.0" angle="180.0" identifier="Ggu7smKqrz"/>
  <guideline x="-95.00696627359001" y="-100.0" angle="180.0" identifier="Sy8xwRMSII"/>
  <guideline x="-82.50348313679501" y="-50.0" angle="180.0" identifier="FVKztojNw0"/>
  <guideline x="-70.0" y="0" angle="180.0" identifier="wwia4Y2nI0"/>
  <guideline x="-57.496516863204995" y="50.0" angle="180.0" identifier="TgxQ1xxFt6"/>
  <guideline x="-44.99303372640999" y="100.0" angle="180.0" identifier="hQMm52oI42"/>
  <guideline x="-32.489550589614986" y="150.0" angle="180.0" identifier="idvdDRQOls"/>
  <guideline x="-19.98606745281998" y="200.0" angle="180.0" identifier="IXkz2WvS39"/>
  <guideline x="-7.482584316024976" y="250.0" angle="180.0" identifier="c0qJuLjWPe"/>
  <guideline x="5.020898820770029" y="300.0" angle="180.0" identifier="alE628fuYv"/>
  <guideline x="17.524381957565026" y="350.0" angle="180.0" identifier="BGok8XOZ50"/>
  <guideline x="30.02786509436004" y="400.0" angle="180.0" identifier="tRsP84yLXp"/>
  <guideline x="42.531348231155036" y="450.0" angle="180.0" identifier="yMuUnowp0G"/>
  <guideline x="55.03483136795005" y="500.0" angle="180.0" identifier="soe8zccut6"/>
  <guideline x="67.53831450474505" y="550.0" angle="180.0" identifier="hv4blCJb5Q"/>
  <guideline x="80.04179764154006" y="600.0" angle="180.0" identifier="Cehh1LxVvk"/>
  <guideline x="92.54528077833507" y="650.0" angle="180.0" identifier="dIuZgQaZbq"/>
  <guideline x="105.04876391513005" y="700.0" angle="180.0" identifier="6tVBMbHClu"/>
  <outline>
    <contour>
      <point x="336.03622462266804" y="520.0" type="curve" smooth="yes"/>
      <point x="205.03622462266804" y="520.0"/>
      <point x="113.89307980468371" y="435.45098039215685"/>
      <point x="73.76915725237251" y="275.0" type="curve" smooth="yes"/>
      <point x="55.51407187265181" y="202.0" type="line" smooth="yes"/>
      <point x="41.010031433969615" y="144.0"/>
      <point x="54.50404043868221" y="58.0"/>
      <point x="78.50404043868221" y="58.0" type="curve"/>
      <point x="87.50404043868221" y="58.0"/>
      <point x="92.75411010141809" y="59.0"/>
      <point x="95.7543887523617" y="63.0" type="curve"/>
      <point x="88.58487622459964" y="105.54020245103084"/>
      <point x="91.9898641376455" y="147.9182389937107"/>
      <point x="110.01532580189803" y="220.0" type="curve" smooth="yes"/>
      <point x="118.76776399765453" y="255.0" type="line" smooth="yes"/>
      <point x="152.77723812973693" y="391.0"/>
      <point x="215.53274148587303" y="470.0"/>
      <point x="326.53274148587303" y="470.0" type="curve" smooth="yes"/>
      <point x="395.53274148587303" y="470.0"/>
      <point x="428.6653006224002" y="426.22042305471405"/>
      <point x="466.02452128303685" y="352.0" type="curve"/>
      <point x="472.02452128303685" y="352.0"/>
      <point x="493.77723812973693" y="391.0"/>
      <point x="488.2782134080395" y="405.0" type="curve" smooth="yes"/>
      <point x="463.5327414858731" y="470.0"/>
      <point x="424.03622462266804" y="520.0"/>
    </contour>
    <contour>
      <point x="20.50431908962581" y="62.0"/>
      <point x="75.99860674528199" y="-20.0"/>
      <point x="170.998606745282" y="-20.0" type="curve" smooth="yes"/>
      <point x="250.99860674528202" y="-20.0"/>
      <point x="320.2509056155667" y="13.0"/>
      <point x="386.5045977405694" y="66.0" type="curve" smooth="yes"/>
      <point x="412.75606065802333" y="87.0"/>
      <point x="423.7585685165157" y="123.0"/>
      <point x="428.51044941038504" y="150.0" type="curve"/>
      <point x="319.7541101014181" y="59.0"/>
      <point x="261.50208988207703" y="30.0"/>
      <point x="184.502089882077" y="30.0" type="curve" smooth="yes"/>
      <point x="108.502089882077" y="30.0"/>
      <point x="77.00696627359002" y="100.0"/>
      <point x="103.01588310378523" y="228.0" type="curve"/>
      <point x="68.01560445284161" y="224.0"/>
      <point x="57.26455951180313" y="209.0"/>
      <point x="55.51407187265181" y="202.0" type="curve" smooth="yes"/>
    </contour>
    <contour>
      <point x="357.482584316025" y="-250.0" type="line"/>
      <point x="412.9980494433948" y="-28.0"/>
      <point x="477.76609209199296" y="231.0"/>
      <point x="542.2840650778552" y="489.0" type="curve" smooth="yes"/>
      <point x="543.0342740660628" y="492.0"/>
      <point x="542.7844830542706" y="495.0"/>
      <point x="541.2846223797424" y="497.0" type="curve" smooth="yes"/>
      <point x="539.7847617052141" y="499.0"/>
      <point x="537.03483136795" y="500.0"/>
      <point x="534.03483136795" y="500.0" type="curve"/>
      <point x="495.03483136795" y="500.0" type="line"/>
      <point x="470.277934757096" y="401.0" type="line"/>
      <point x="427.0158831037852" y="228.0"/>
      <point x="397.25759323821313" y="109.0"/>
      <point x="364.4984674198102" y="-22.0" type="curve" smooth="yes"/>
      <point x="347.9938696792408" y="-88.0"/>
      <point x="330.4889932877278" y="-158.0"/>
      <point x="310.23335060611987" y="-239.0" type="curve" smooth="yes"/>
      <point x="309.48314161791217" y="-242.0"/>
      <point x="309.73293262970446" y="-245.0"/>
      <point x="311.2327933042327" y="-247.0" type="curve" smooth="yes"/>
      <point x="312.7326539787609" y="-249.0"/>
      <point x="315.482584316025" y="-250.0"/>
      <point x="318.482584316025" y="-250.0" type="curve" smooth="yes"/>
    </contour>
  </outline>
</glyph>
<glyph name="s" format="2">
  <advance width="600"/>
  <unicode hex="0073"/>
  <outline>
    <contour>
      <point x="388.53552799530905" y="510.0" type="curve" smooth="yes"/>
      <point x="375.53552799530905" y="510.0" type="line" smooth="yes"/>
      <point x="240.34374717339125" y="510.0"/>
      <point x="146.6453871403193" y="446.45714285714286"/>
      <point x="127.77584487501895" y="371.0" type="curve" smooth="yes"/>
      <point x="117.52298870284704" y="330.0"/>
      <point x="150.27291904011113" y="329.0"/>
      <point x="167.27291904011113" y="329.0" type="curve"/>
      <point x="172.02424263209323" y="348.0"/>
      <point x="174.77500892218814" y="359.0"/>
      <point x="177.77584487501895" y="371.0" type="curve" smooth="yes"/>
      <point x="192.27988531370113" y="429.0"/>
      <point x="279.1881142226759" y="460.0"/>
      <point x="367.03204485851404" y="460.0" type="curve" smooth="yes"/>
      <point x="439.98979133738726" y="460.0"/>
      <point x="475.0642552630559" y="451.27338409059035"/>
      <point x="508.53023362738065" y="434.0" type="curve"/>
      <point x="520.5302336273807" y="434.0" type="line"/>
      <point x="530.5330201368166" y="474.0" type="line" smooth="yes"/>
      <point x="531.2832291250244" y="477.0"/>
      <point x="531.7833684504961" y="479.0"/>
      <point x="529.5335774387038" y="482.0" type="curve" smooth="yes"/>
      <point x="519.3161731104788" y="495.62447126155774"/>
      <point x="465.6622885586893" y="510.0"/>
    </contour>
    <contour>
      <point x="346.76859995048534" y="267.0" type="curve" smooth="yes"/>
      <point x="267.02006286793926" y="288.0" type="line" smooth="yes"/>
      <point x="181.3118410411664" y="310.05397286164816"/>
      <point x="167.02284937737522" y="328.0"/>
      <point x="177.77584487501895" y="371.0" type="curve" smooth="yes"/>
      <point x="180.02647183964203" y="380.0"/>
      <point x="184.27765610615234" y="397.0"/>
      <point x="189.02897969813444" y="416.0" type="curve"/>
      <point x="162.02897969813444" y="416.0"/>
      <point x="133.02730779247284" y="392.0"/>
      <point x="127.77584487501895" y="371.0" type="curve"/>
      <point x="110.63825830064928" y="302.46875"/>
      <point x="138.3689619336143" y="266.83990049704045"/>
      <point x="231.51685838208783" y="242.0" type="curve" smooth="yes"/>
      <point x="311.2653954646339" y="221.0" type="line" smooth="yes"/>
      <point x="408.7635842335005" y="195.0"/>
      <point x="427.511842665103" y="170.0"/>
      <point x="416.0086381792516" y="124.0" type="curve" smooth="yes"/>
      <point x="412.25759323821313" y="109.0"/>
      <point x="411.0072449245336" y="104.0"/>
      <point x="408.0064089717028" y="92.0" type="curve"/>
      <point x="442.7002865227232" y="92.0"/>
      <point x="463.00780222642084" y="112.0"/>
      <point x="466.00863817925165" y="124.0" type="curve" smooth="yes"/>
      <point x="481.51295726887747" y="186.0"/>
      <point x="462.26651006840837" y="237.0"/>
    </contour>
    <contour>
      <point x="226.50208988207703" y="30.0" type="curve" smooth="yes"/>
      <point x="130.502089882077" y="30.0"/>
      <point x="89.51937438868359" y="47.66043294106425"/>
      <point x="49.506269646231004" y="90.0" type="curve"/>
      <point x="37.506269646231004" y="90.0" type="line"/>
      <point x="35.00557301887201" y="80.0"/>
      <point x="30.254249426889913" y="61.0"/>
      <point x="25.75299549764371" y="43.0" type="curve" smooth="yes"/>
      <point x="24.75271684670011" y="39.0"/>
      <point x="25.252577521228304" y="37.0"/>
      <point x="26.752438195756497" y="35.0" type="curve" smooth="yes"/>
      <point x="50.90082778342399" y="2.7991562846146607"/>
      <point x="105.72978954098093" y="-20.0"/>
      <point x="208.99860674528202" y="-20.0" type="curve" smooth="yes"/>
      <point x="213.99860674528202" y="-20.0" type="line" smooth="yes"/>
      <point x="345.8924120550165" y="-20.0"/>
      <point x="444.00250785849244" y="36.0"/>
      <point x="466.00863817925165" y="124.0" type="curve" smooth="yes"/>
      <point x="470.50989210849787" y="142.0"/>
      <point x="454.76163367689537" y="167.0"/>
      <point x="426.7616336768953" y="167.0" type="curve"/>
      <point x="422.51044941038504" y="150.0"/>
      <point x="420.2598224457619" y="141.0"/>
      <point x="416.0086381792516" y="124.0" type="curve" smooth="yes"/>
      <point x="402.2548067287771" y="69.0"/>
      <point x="342.51345351844066" y="30.0"/>
    </contour>
  </outline>
</glyph>
<glyph name="v" format="2">
  <advance width="600"/>
  <unicode hex="0076"/>
  <outline>
    <contour>
      <point x="581.0345527170065" y="496.0"/>
      <point x="579.03483136795" y="500.0"/>
      <point x="574.03483136795" y="500.0" type="curve" smooth="yes"/>
      <point x="529.03483136795" y="500.0" type="line"/>
      <point x="425.77361566747015" y="339.0"/>
      <point x="321.2623303042543" y="177.0"/>
      <point x="218.0011146037744" y="16.0" type="curve"/>
      <point x="209.7502089882077" y="3.0"/>
      <point x="206.49986067452818" y="-2.0"/>
      <point x="199.499303372641" y="-10.0" type="curve"/>
      <point x="255.499303372641" y="-10.0" type="line"/>
      <point x="362.01086738680044" y="156.0"/>
      <point x="469.7725010636957" y="323.0"/>
      <point x="576.2840650778552" y="489.0" type="curve"/>
    </contour>
    <contour>
      <point x="173.78476170521412" y="499.0"/>
      <point x="172.03483136795006" y="500.0"/>
      <point x="168.03483136795006" y="500.0" type="curve"/>
      <point x="119.03483136795006" y="500.0" type="line"/>
      <point x="142.52326735379063" y="334.0"/>
      <point x="165.76163367689531" y="167.0"/>
      <point x="189.25006966273588" y="1.0" type="curve" smooth="yes"/>
      <point x="190.2495123608487" y="-7.0"/>
      <point x="194.499303372641" y="-10.0"/>
      <point x="199.499303372641" y="-10.0" type="curve"/>
      <point x="217.499303372641" y="-10.0"/>
      <point x="237.74993033726412" y="-1.0"/>
      <point x="241.75104494103851" y="15.0" type="curve"/>
      <point x="219.5121213160466" y="174.0"/>
      <point x="196.7733370165265" y="335.0"/>
      <point x="174.53441339153466" y="494.0" type="curve" smooth="yes"/>
    </contour>
  </outline>
</glyph>
<glyph name="x" format="2">
  <advance width="600"/>
  <unicode hex="0078"/>
  <guideline x="151.53803585380146" y="546" angle="179.2032303972546" identifier="tBzLpSL28w"/>
  <guideline x="437.0" y="0" angle="179.2032303972546" identifier="AejtQeg3Y5"/>
  <outline>
    <contour>
      <point x="400.0" y="0.0" type="curve" smooth="yes"/>
      <point x="447.0" y="0.0" type="line"/>
      <point x="367.5112853632158" y="162.0"/>
      <point x="287.2726403891675" y="325.0"/>
      <point x="207.7839257523833" y="487.0" type="curve" smooth="yes"/>
      <point x="204.53441339153466" y="494.0"/>
      <point x="199.03483136795006" y="500.0"/>
      <point x="190.03483136795006" y="500.0" type="curve" smooth="yes"/>
      <point x="140.03483136795006" y="500.0" type="line"/>
      <point x="219.52354600473421" y="338.0"/>
      <point x="299.76219097878254" y="175.0"/>
      <point x="379.2509056155667" y="13.0" type="curve" smooth="yes"/>
      <point x="382.664316501043" y="5.646934818215765"/>
      <point x="389.7142857142857" y="0.0"/>
    </contour>
    <contour>
      <point x="549.03483136795" y="500.0" type="curve" smooth="yes"/>
      <point x="513.03483136795" y="500.0" type="line"/>
      <point x="436.52939767454984" y="422.0"/>
      <point x="359.77389431841374" y="343.0"/>
      <point x="283.2684606250135" y="265.0" type="curve" smooth="yes"/>
      <point x="264.89771943790595" y="246.38562961473866"/>
      <point x="280.1630812527864" y="230.0"/>
      <point x="306.516022429257" y="230.0" type="curve"/>
      <point x="388.52187409907265" y="314.0"/>
      <point x="471.27765610615234" y="397.0"/>
      <point x="553.2835077759679" y="481.0" type="curve" smooth="yes"/>
      <point x="558.7839257523833" y="487.0"/>
      <point x="560.2843437287987" y="493.0"/>
      <point x="557.2846223797424" y="497.0" type="curve" smooth="yes"/>
      <point x="555.7847617052141" y="499.0"/>
      <point x="553.03483136795" y="500.0"/>
    </contour>
    <contour>
      <point x="26.0" y="0.0" type="curve" smooth="yes"/>
      <point x="63.0" y="0.0" type="line"/>
      <point x="139.50543369340022" y="78.0"/>
      <point x="216.26093704953632" y="157.0"/>
      <point x="292.76637074293654" y="235.0" type="curve" smooth="yes"/>
      <point x="311.32549528502943" y="253.80525204367672"/>
      <point x="295.69527952692835" y="270.0"/>
      <point x="268.51880893869304" y="270.0" type="curve"/>
      <point x="186.51295726887741" y="186.0"/>
      <point x="103.7571752617977" y="103.0"/>
      <point x="21.7513235919821" y="19.0" type="curve" smooth="yes"/>
      <point x="16.250905615566694" y="13.0"/>
      <point x="14.500417976415406" y="6.0"/>
      <point x="17.750208988207703" y="3.0" type="curve" smooth="yes"/>
      <point x="19.250069662735896" y="1.0"/>
      <point x="22.0" y="0.0"/>
    </contour>
  </outline>
</glyph>
<glyph name="y" format="2">
  <advance width="600"/>
  <unicode hex="0079"/>
  <outline>
    <contour>
      <point x="161.53469204247824" y="498.0" type="curve" smooth="yes"/>
      <point x="160.78476170521412" y="499.0"/>
      <point x="159.03483136795006" y="500.0"/>
      <point x="155.03483136795006" y="500.0" type="curve"/>
      <point x="103.03483136795006" y="500.0" type="line"/>
      <point x="161.01504715095442" y="216.0" type="line" smooth="yes"/>
      <point x="204.00027865094359" y="4.0"/>
      <point x="204.7502089882077" y="3.0"/>
      <point x="205.50013932547182" y="2.0" type="curve" smooth="yes"/>
      <point x="206.25006966273588" y="1.0"/>
      <point x="208.0" y="0.0"/>
      <point x="210.0" y="0.0" type="curve" smooth="yes"/>
      <point x="254.0" y="0.0" type="line" smooth="yes"/>
      <point x="278.0" y="0.0"/>
      <point x="290.5012539292462" y="18.0"/>
      <point x="296.7532741485873" y="47.0" type="curve"/>
      <point x="254.7532741485873" y="47.0" type="line"/>
      <point x="252.7532741485873" y="47.0"/>
      <point x="251.7532741485873" y="47.0"/>
      <point x="251.0033438113232" y="48.0" type="curve" smooth="yes"/>
      <point x="250.25341347405913" y="49.0"/>
      <point x="249.7535527995309" y="51.0"/>
      <point x="206.26929657784433" y="277.0" type="curve" smooth="yes"/>
      <point x="164.28406507785513" y="489.0" type="line"/>
      <point x="163.03455271700645" y="496.0"/>
      <point x="162.28462237974236" y="497.0"/>
    </contour>
    <contour>
      <point x="599.2846223797424" y="497.0" type="curve" smooth="yes"/>
      <point x="597.7847617052141" y="499.0"/>
      <point x="596.03483136795" y="500.0"/>
      <point x="593.03483136795" y="500.0" type="curve"/>
      <point x="550.03483136795" y="500.0" type="line"/>
      <point x="474.27626285143435" y="377.0" type="line" smooth="yes"/>
      <point x="376.5151864764262" y="218.0"/>
      <point x="280.004179764154" y="60.0"/>
      <point x="178.49289440093818" y="-102.0" type="curve" smooth="yes"/>
      <point x="123.486764080179" y="-190.0"/>
      <point x="74.98578880187637" y="-204.0"/>
      <point x="-43.26455951180312" y="-209.0" type="curve"/>
      <point x="-48.51602242925702" y="-230.0"/>
      <point x="-34.517415683975024" y="-250.0"/>
      <point x="-20.517415683975024" y="-250.0" type="curve" smooth="yes"/>
      <point x="86.48258431602497" y="-250.0"/>
      <point x="156.48397757074298" y="-230.0"/>
      <point x="234.24282473820227" y="-103.0" type="curve" smooth="yes"/>
      <point x="330.5037617877386" y="54.0"/>
      <point x="425.2645595118031" y="209.0"/>
      <point x="521.2754268986035" y="365.0" type="curve" smooth="yes"/>
      <point x="597.2840650778552" y="489.0" type="line" smooth="yes"/>
      <point x="600.5344133915346" y="494.0"/>
      <point x="600.0345527170065" y="496.0"/>
    </contour>
    <contour>
      <point x="-100.01393254718002" y="-200.0" type="line"/>
      <point x="-109.76664939388013" y="-239.0" type="line"/>
      <point x="-110.51685838208782" y="-242.0"/>
      <point x="-110.26706737029552" y="-245.0"/>
      <point x="-108.76720669576733" y="-247.0" type="curve"/>
      <point x="-107.26734602123912" y="-249.0"/>
      <point x="-104.51741568397503" y="-250.0"/>
      <point x="-101.51741568397503" y="-250.0" type="curve"/>
      <point x="-20.517415683975024" y="-250.0" type="line"/>
      <point x="42.71787843367204" y="-250.0"/>
      <point x="114.23418655895068" y="-227.0"/>
      <point x="120.98606745281998" y="-200.0" type="curve"/>
      <point x="52.1104197844262" y="-200.0"/>
      <point x="-21.138284878786237" y="-200.0"/>
      <point x="-90.01393254718002" y="-200.0" type="curve"/>
    </contour>
  </outline>
</glyph>
<glyph name="z" format="2">
  <advance width="600"/>
  <unicode hex="007A"/>
  <guideline x="388.78336845049614" y="479" angle="180.0" identifier="ahZJMrMpPW"/>
  <outline>
    <contour>
      <point x="125.03483136795006" y="500.0" type="curve"/>
      <point x="115.28211452124992" y="461.0" type="line" smooth="yes"/>
      <point x="114.53190553304222" y="458.0"/>
      <point x="114.78169654483455" y="455.0"/>
      <point x="116.28155721936275" y="453.0" type="curve" smooth="yes"/>
      <point x="117.78141789389093" y="451.0"/>
      <point x="120.53134823115505" y="450.0"/>
      <point x="123.53134823115505" y="450.0" type="curve" smooth="yes"/>
      <point x="278.53134823115505" y="450.0"/>
      <point x="337.53134823115505" y="450.0"/>
      <point x="492.531348231155" y="450.0" type="curve" smooth="yes"/>
      <point x="504.531348231155" y="450.0"/>
      <point x="545.531348231155" y="450.0"/>
      <point x="552.531348231155" y="450.0" type="curve"/>
      <point x="562.2840650778552" y="489.0" type="line" smooth="yes"/>
      <point x="563.0342740660628" y="492.0"/>
      <point x="562.7844830542706" y="495.0"/>
      <point x="561.2846223797424" y="497.0" type="curve" smooth="yes"/>
      <point x="559.7847617052141" y="499.0"/>
      <point x="557.03483136795" y="500.0"/>
      <point x="554.03483136795" y="500.0" type="curve" smooth="yes"/>
      <point x="376.03483136795006" y="500.0"/>
      <point x="303.03483136795006" y="500.0"/>
    </contour>
    <contour>
      <point x="557.9032150602966" y="471.48148148148147"/>
      <point x="546.7833684504961" y="479.0"/>
      <point x="520.7833684504961" y="479.0" type="curve"/>
      <point x="351.02340667926245" y="336.0"/>
      <point x="182.2634449080287" y="193.0"/>
      <point x="12.503483136795012" y="50.0" type="curve"/>
      <point x="5.001393254717996" y="20.0"/>
      <point x="40.31377385697587" y="17.84261852607473"/>
      <point x="60.7524381957565" y="35.0" type="curve" smooth="yes"/>
      <point x="222.566416359558" y="170.83588952542044"/>
      <point x="552.2812785684191" y="449.0"/>
      <point x="552.531348231155" y="450.0" type="curve"/>
    </contour>
    <contour>
      <point x="440.0" y="0.0" type="curve"/>
      <point x="449.7527168467001" y="39.0" type="line" smooth="yes"/>
      <point x="450.50292583490784" y="42.0"/>
      <point x="450.2531348231155" y="45.0"/>
      <point x="448.75327414858725" y="47.0" type="curve" smooth="yes"/>
      <point x="447.25341347405913" y="49.0"/>
      <point x="444.503483136795" y="50.0"/>
      <point x="441.503483136795" y="50.0" type="curve" smooth="yes"/>
      <point x="285.503483136795" y="50.0"/>
      <point x="209.503483136795" y="50.0"/>
      <point x="73.50348313679501" y="50.0" type="curve" smooth="yes"/>
      <point x="54.50348313679501" y="50.0"/>
      <point x="34.50348313679501" y="50.0"/>
      <point x="12.503483136795012" y="50.0" type="curve"/>
      <point x="2.7507662900949015" y="11.0" type="line" smooth="yes"/>
      <point x="2.0005573018871985" y="8.0"/>
      <point x="2.2503483136794955" y="5.0"/>
      <point x="3.750208988207703" y="3.0" type="curve" smooth="yes"/>
      <point x="5.250069662735896" y="1.0"/>
      <point x="8.0" y="0.0"/>
      <point x="11.0" y="0.0" type="curve" smooth="yes"/>
      <point x="59.0" y="0.0"/>
      <point x="77.0" y="0.0"/>
      <point x="125.0" y="0.0" type="curve"/>
      <point x="188.0" y="0.0"/>
      <point x="404.0" y="0.0"/>
    </contour>
  </outline>
</glyph>
<glyph name="Y.ss02" format="2">
  <advance width="600"/>
  <outline>
    <contour>
      <point x="211.5486245896583" y="698.0" type="curve" smooth="yes"/>
      <point x="210.79869425239417" y="699.0"/>
      <point x="209.04876391513005" y="700.0"/>
      <point x="205.04876391513005" y="700.0" type="curve"/>
      <point x="153.04876391513005" y="700.0" type="line"/>
      <point x="211.02897969813444" y="416.0" type="line" smooth="yes"/>
      <point x="249.76581344104932" y="227.0"/>
      <point x="251.2656741155775" y="225.0"/>
      <point x="252.76553479010573" y="223.0" type="curve" smooth="yes"/>
      <point x="253.5154651273698" y="222.0"/>
      <point x="254.5154651273698" y="222.0"/>
      <point x="256.5154651273698" y="222.0" type="curve" smooth="yes"/>
      <point x="319.5154651273698" y="222.0" type="line" smooth="yes"/>
      <point x="343.5154651273698" y="222.0"/>
      <point x="356.016719056616" y="240.0"/>
      <point x="362.26873927595716" y="269.0" type="curve"/>
      <point x="302.26873927595716" y="269.0" type="line"/>
      <point x="300.26873927595716" y="269.0"/>
      <point x="299.26873927595716" y="269.0"/>
      <point x="298.51880893869304" y="270.0" type="curve" smooth="yes"/>
      <point x="297.7688786014289" y="271.0"/>
      <point x="297.0189482641648" y="272.0"/>
      <point x="256.2832291250244" y="477.0" type="curve" smooth="yes"/>
      <point x="214.29799762503512" y="689.0" type="line"/>
      <point x="213.04848526418647" y="696.0"/>
      <point x="212.29855492692235" y="697.0"/>
    </contour>
    <contour>
      <point x="649.2985549269224" y="697.0" type="curve" smooth="yes"/>
      <point x="647.7986942523942" y="699.0"/>
      <point x="646.04876391513" y="700.0"/>
      <point x="643.04876391513" y="700.0" type="curve"/>
      <point x="600.04876391513" y="700.0" type="line"/>
      <point x="524.2901953986143" y="577.0" type="line" smooth="yes"/>
      <point x="436.78030329011654" y="435.0"/>
      <point x="349.2704111816187" y="293.0"/>
      <point x="259.0103100849132" y="148.0" type="curve" smooth="yes"/>
      <point x="204.004179764154" y="60.0"/>
      <point x="155.5032044858514" y="46.0"/>
      <point x="37.2528561721719" y="41.0" type="curve"/>
      <point x="32.001393254717996" y="20.0"/>
      <point x="46.0" y="0.0"/>
      <point x="60.0" y="0.0" type="curve" smooth="yes"/>
      <point x="167.0" y="0.0"/>
      <point x="237.00139325471798" y="20.0"/>
      <point x="314.76024042217733" y="147.0" type="curve" smooth="yes"/>
      <point x="400.7699932052033" y="287.0"/>
      <point x="485.5296763254935" y="426.0"/>
      <point x="571.2893594457836" y="565.0" type="curve" smooth="yes"/>
      <point x="647.2979976250351" y="689.0" type="line" smooth="yes"/>
      <point x="650.5483459387146" y="694.0"/>
      <point x="650.0484852641864" y="696.0"/>
    </contour>
    <contour>
      <point x="10.503483136795012" y="50.0" type="line"/>
      <point x="0.7507662900949015" y="11.0" type="line"/>
      <point x="0.0005573018871984914" y="8.0"/>
      <point x="0.2503483136794955" y="5.0"/>
      <point x="1.750208988207703" y="3.0" type="curve"/>
      <point x="3.2500696627358963" y="1.0"/>
      <point x="6.0" y="0.0"/>
      <point x="9.0" y="0.0" type="curve"/>
      <point x="60.0" y="0.0" type="line"/>
      <point x="123.0" y="0.0"/>
      <point x="194.75160224292569" y="23.0"/>
      <point x="201.503483136795" y="50.0" type="curve"/>
      <point x="142.503483136795" y="50.0"/>
      <point x="79.50348313679501" y="50.0"/>
      <point x="20.503483136795012" y="50.0" type="curve"/>
    </contour>
  </outline>
</glyph>
<glyph name="g.ss01" format="2">
  <advance width="600"/>
  <guideline x="-70.0" y="0" angle="179.2032303972546" identifier="fFX9GC0D98"/>
  <guideline x="-20.0" y="0" angle="179.2032303972546" identifier="wMIp2CviJf"/>
  <guideline x="30.0" y="0" angle="179.2032303972546" identifier="IKrQneMfFj"/>
  <guideline x="80.0" y="0" angle="179.2032303972546" identifier="M9C2MT2Qvf"/>
  <guideline x="130.0" y="0" angle="179.2032303972546" identifier="dNivGj9w62"/>
  <guideline x="180.0" y="0" angle="179.2032303972546" identifier="sr0m8cwG4M"/>
  <guideline x="230.0" y="0" angle="179.2032303972546" identifier="mTvssYp108"/>
  <guideline x="280.0" y="0" angle="179.2032303972546" identifier="oFyjWlUkAw"/>
  <guideline x="330.0" y="0" angle="179.2032303972546" identifier="CQJnUBxMg9"/>
  <guideline x="380.0" y="0" angle="179.2032303972546" identifier="emwyBBRnCL"/>
  <guideline x="430.0" y="0" angle="179.2032303972546" identifier="a9jgVKsyOC"/>
  <guideline x="480.0" y="0" angle="179.2032303972546" identifier="bXzsxCL9LO"/>
  <guideline x="530.0" y="0" angle="179.2032303972546" identifier="I2HucCi5TD"/>
  <guideline x="-132.51741568397503" y="-250.0" angle="180.0" identifier="UCuZ6uD0Cr"/>
  <guideline x="-120.01393254718002" y="-200.0" angle="180.0" identifier="NG4Zrz0shV"/>
  <guideline x="-107.51044941038501" y="-150.0" angle="180.0" identifier="2KrtG8Em58"/>
  <guideline x="-95.00696627359001" y="-100.0" angle="180.0" identifier="n44YxwXi7W"/>
  <guideline x="-82.50348313679501" y="-50.0" angle="180.0" identifier="ZX87Ur1D1N"/>
  <guideline x="-70.0" y="0" angle="180.0" identifier="IdhyiJSOvF"/>
  <guideline x="-57.496516863204995" y="50.0" angle="180.0" identifier="uSVIaaEs0f"/>
  <guideline x="-44.99303372640999" y="100.0" angle="180.0" identifier="PFJMHIgHqz"/>
  <guideline x="-32.489550589614986" y="150.0" angle="180.0" identifier="dNaQhUsEAf"/>
  <guideline x="-19.98606745281998" y="200.0" angle="180.0" identifier="9Rtmp3P35Y"/>
  <guideline x="-7.482584316024976" y="250.0" angle="180.0" identifier="bWv9TQcvj5"/>
  <guideline x="5.020898820770029" y="300.0" angle="180.0" identifier="ko21yNnJnZ"/>
  <guideline x="17.524381957565026" y="350.0" angle="180.0" identifier="pMtztbhGc3"/>
  <guideline x="30.02786509436004" y="400.0" angle="180.0" identifier="jmv4SmLrQl"/>
  <guideline x="42.531348231155036" y="450.0" angle="180.0" identifier="gj3CR38F5W"/>
  <guideline x="55.03483136795005" y="500.0" angle="180.0" identifier="3AErukqoep"/>
  <guideline x="67.53831450474505" y="550.0" angle="180.0" identifier="EEe6yklfjh"/>
  <guideline x="80.04179764154006" y="600.0" angle="180.0" identifier="bDRLt6AT9T"/>
  <guideline x="92.54528077833507" y="650.0" angle="180.0" identifier="0c2GGOfDQe"/>
  <guideline x="105.04876391513005" y="700.0" angle="180.0" identifier="cO5xW47bZf"/>
  <outline>
    <contour>
      <point x="339.78281114860897" y="471.0" type="curve" smooth="yes"/>
      <point x="393.78281114860897" y="471.0"/>
      <point x="440.28155721936275" y="453.0"/>
      <point x="458.52939767454984" y="422.0" type="curve"/>
      <point x="471.6571830131952" y="432.50164301236936"/>
      <point x="487.19634954246294" y="466.4481926863937"/>
      <point x="478.53329878776026" y="478.0" type="curve" smooth="yes"/>
      <point x="455.06501726613715" y="509.2939487249445"/>
      <point x="401.03622462266804" y="520.0"/>
      <point x="361.03622462266804" y="520.0" type="curve" smooth="yes"/>
      <point x="347.03622462266804" y="520.0" type="line" smooth="yes"/>
      <point x="236.03622462266804" y="520.0"/>
      <point x="128.28155721936275" y="453.0"/>
      <point x="102.52438195756503" y="350.0" type="curve" smooth="yes"/>
      <point x="95.02229207548802" y="320.0" type="line" smooth="yes"/>
      <point x="81.76859995048534" y="267.0"/>
      <point x="89.26678871935192" y="241.0"/>
      <point x="115.51435052359543" y="206.0" type="curve" smooth="yes"/>
      <point x="125.2634449080287" y="193.0"/>
      <point x="160.7633055825569" y="191.0"/>
      <point x="175.76414153538772" y="203.0" type="curve"/>
      <point x="147.26678871935192" y="241.0"/>
      <point x="131.51853028774943" y="266.0"/>
      <point x="141.52131679718542" y="306.0" type="curve" smooth="yes"/>
      <point x="147.02284937737522" y="328.0" type="line" smooth="yes"/>
      <point x="171.02953700002163" y="424.0"/>
      <point x="245.78281114860897" y="471.0"/>
    </contour>
    <contour>
      <point x="253.76442018633134" y="207.0" type="curve" smooth="yes"/>
      <point x="199.76442018633134" y="207.0"/>
      <point x="153.26567411557753" y="225.0"/>
      <point x="135.0178336603904" y="256.0" type="curve"/>
      <point x="122.51713703303142" y="246.0"/>
      <point x="108.01504715095442" y="216.0"/>
      <point x="115.51435052359543" y="206.0" type="curve" smooth="yes"/>
      <point x="140.26205165331072" y="173.0"/>
      <point x="191.5110067122722" y="158.0"/>
      <point x="232.5110067122722" y="158.0" type="curve" smooth="yes"/>
      <point x="246.5110067122722" y="158.0" type="line" smooth="yes"/>
      <point x="357.5110067122722" y="158.0"/>
      <point x="465.26567411557755" y="225.0"/>
      <point x="491.0228493773752" y="328.0" type="curve" smooth="yes"/>
      <point x="498.52493925945225" y="358.0" type="line" smooth="yes"/>
      <point x="510.9855533112068" y="407.8285714285714"/>
      <point x="501.77037170327594" y="432.34632896647497"/>
      <point x="475.78253249766533" y="467.0" type="curve" smooth="yes"/>
      <point x="463.03371676417567" y="484.0"/>
      <point x="435.28350777596796" y="481.0"/>
      <point x="415.28239317219357" y="465.0" type="curve"/>
      <point x="452.27988531370113" y="429.0"/>
      <point x="461.02842239624727" y="408.0"/>
      <point x="452.02591453775483" y="372.0" type="curve" smooth="yes"/>
      <point x="446.5243819575651" y="350.0" type="line" smooth="yes"/>
      <point x="422.51769433491864" y="254.0"/>
      <point x="347.76442018633134" y="207.0"/>
    </contour>
    <contour>
      <point x="153.2564786344387" y="93.0" type="curve" smooth="yes"/>
      <point x="150.005573018872" y="80.0" type="line" smooth="yes"/>
      <point x="136.7518808938693" y="27.0"/>
      <point x="161.0" y="0.0"/>
      <point x="223.0" y="0.0" type="curve" smooth="yes"/>
      <point x="346.0" y="0.0" type="line" smooth="yes"/>
      <point x="411.0" y="0.0"/>
      <point x="432.49791011792297" y="-30.0"/>
      <point x="421.2447752948075" y="-75.0" type="curve" smooth="yes"/>
      <point x="415.9933123773536" y="-96.0" type="line" smooth="yes"/>
      <point x="409.4915011462202" y="-122.0"/>
      <point x="397.48955058961496" y="-150.0"/>
      <point x="346.23669441744306" y="-191.0" type="curve"/>
      <point x="358.9855101509328" y="-208.0"/>
      <point x="377.9852314999892" y="-212.0"/>
      <point x="396.7362764410277" y="-197.0" type="curve" smooth="yes"/>
      <point x="436.7385056485765" y="-165.0"/>
      <point x="456.9908045188612" y="-132.0"/>
      <point x="466.99359102829715" y="-92.0" type="curve" smooth="yes"/>
      <point x="471.2447752948075" y="-75.0" type="line" smooth="yes"/>
      <point x="490.0" y="0.0"/>
      <point x="460.503483136795" y="50.0"/>
      <point x="359.503483136795" y="50.0" type="curve" smooth="yes"/>
      <point x="227.503483136795" y="50.0" type="line" smooth="yes"/>
      <point x="200.503483136795" y="50.0"/>
      <point x="194.50404043868218" y="58.0"/>
      <point x="201.2559213325515" y="85.0" type="curve" smooth="yes"/>
      <point x="203.50654829717462" y="94.0" type="line" smooth="yes"/>
      <point x="209.75828986557212" y="119.0"/>
      <point x="236.26065839859268" y="153.0"/>
      <point x="258.0117033396312" y="168.0" type="curve"/>
      <point x="259.76219097878254" y="175.0"/>
      <point x="253.2623303042543" y="177.0"/>
      <point x="232.2623303042543" y="177.0" type="curve" smooth="yes"/>
      <point x="212.2623303042543" y="177.0"/>
      <point x="162.0089168301952" y="128.0"/>
    </contour>
    <contour>
      <point x="416.2403168797099" y="-139.0" type="curve"/>
      <point x="353.2372517193303" y="-183.0"/>
      <point x="310.98606745281995" y="-200.0"/>
      <point x="226.98606745281995" y="-200.0" type="curve"/>
      <point x="85.98606745281998" y="-200.0" type="line"/>
      <point x="24.98606745281998" y="-200.0"/>
      <point x="-3.512121316046617" y="-174.0"/>
      <point x="8.741292158012484" y="-125.0" type="curve" smooth="yes"/>
      <point x="14.99303372640999" y="-100.0" type="line" smooth="yes"/>
      <point x="23.995541584902398" y="-64.0"/>
      <point x="69.4995820235846" y="-6.0"/>
      <point x="190.00055730188723" y="8.0" type="curve"/>
      <point x="193.25146291745392" y="21.0"/>
      <point x="192.00250785849238" y="36.0"/>
      <point x="178.0025078584924" y="36.0" type="curve"/>
      <point x="78.00250785849241" y="36.0"/>
      <point x="-16.001671905661603" y="-24.0"/>
      <point x="-36.00724492453361" y="-104.0" type="curve" smooth="yes"/>
      <point x="-42.759125818402914" y="-131.0" type="line" smooth="yes"/>
      <point x="-58.76358423350052" y="-195.0"/>
      <point x="-17.517415683975024" y="-250.0"/>
      <point x="60.48258431602497" y="-250.0" type="curve"/>
      <point x="177.48258431602497" y="-250.0" type="line"/>
      <point x="276.482584316025" y="-250.0"/>
      <point x="349.23362925706346" y="-235.0"/>
      <point x="396.7362764410277" y="-197.0" type="curve"/>
      <point x="410.4870427311226" y="-186.0"/>
      <point x="422.23975957782267" y="-147.0"/>
    </contour>
    <contour>
      <point x="425.03483136795006" y="500.0" type="curve"/>
      <point x="423.46031867664993" y="493.7037037037037"/>
      <point x="423.88581351994907" y="486.86413702379684"/>
      <point x="426.7836471014397" y="483.0" type="curve" smooth="yes"/>
      <point x="439.99631401287" y="465.3814743118237"/>
      <point x="477.1293874468413" y="450.0"/>
      <point x="557.531348231155" y="450.0" type="curve" smooth="yes"/>
      <point x="567.9928866926934" y="450.0"/>
      <point x="599.3775020773088" y="450.0"/>
      <point x="605.531348231155" y="450.0" type="curve"/>
      <point x="615.2840650778552" y="489.0" type="line" smooth="yes"/>
      <point x="616.0342740660628" y="492.0"/>
      <point x="615.7844830542706" y="495.0"/>
      <point x="614.2846223797424" y="497.0" type="curve" smooth="yes"/>
      <point x="612.7847617052141" y="499.0"/>
      <point x="610.03483136795" y="500.0"/>
      <point x="607.03483136795" y="500.0" type="curve" smooth="yes"/>
      <point x="534.8906872238059" y="500.0"/>
      <point x="497.1789755120942" y="500.0"/>
    </contour>
  </outline>
</glyph>
<glyph name="l.ss02" format="2">
  <advance width="600"/>
  <outline>
    <contour>
      <point x="197.55224705192506" y="750.0" type="curve"/>
      <point x="187.79953020522498" y="711.0" type="line" smooth="yes"/>
      <point x="187.04932121701722" y="708.0"/>
      <point x="187.29911222880958" y="705.0"/>
      <point x="188.79897290333776" y="703.0" type="curve" smooth="yes"/>
      <point x="190.29883357786593" y="701.0"/>
      <point x="193.04876391513005" y="700.0"/>
      <point x="196.04876391513005" y="700.0" type="curve" smooth="yes"/>
      <point x="263.04876391513005" y="700.0"/>
      <point x="377.04876391513005" y="700.0"/>
      <point x="418.04876391513005" y="700.0" type="curve"/>
      <point x="427.80148076183013" y="739.0" type="line" smooth="yes"/>
      <point x="428.5516897500379" y="742.0"/>
      <point x="428.30189873824554" y="745.0"/>
      <point x="426.80203806371736" y="747.0" type="curve" smooth="yes"/>
      <point x="425.3021773891892" y="749.0"/>
      <point x="422.55224705192506" y="750.0"/>
      <point x="419.55224705192506" y="750.0" type="curve" smooth="yes"/>
      <point x="339.55224705192506" y="750.0"/>
      <point x="277.55224705192506" y="750.0"/>
    </contour>
    <contour>
      <point x="443.8020380637174" y="747.0" type="curve" smooth="yes"/>
      <point x="442.3021773891892" y="749.0"/>
      <point x="439.55224705192506" y="750.0"/>
      <point x="436.55224705192506" y="750.0" type="curve" smooth="yes"/>
      <point x="397.55224705192506" y="750.0" type="line"/>
      <point x="226.0044584150976" y="64.0" type="line" smooth="yes"/>
      <point x="220.00278650943602" y="40.0"/>
      <point x="220.5018112311334" y="26.0"/>
      <point x="228.75104494103851" y="15.0" type="curve"/>
      <point x="237.00027865094359" y="4.0"/>
      <point x="254.2506269646231" y="9.0"/>
      <point x="265.5015325801898" y="22.0" type="curve"/>
      <point x="271.2531348231155" y="45.0"/>
      <point x="277.504876391513" y="70.0"/>
      <point x="285.5071055990618" y="102.0" type="curve" smooth="yes"/>
      <point x="444.80148076183013" y="739.0" type="line" smooth="yes"/>
      <point x="445.5516897500379" y="742.0"/>
      <point x="445.30189873824554" y="745.0"/>
    </contour>
    <contour>
      <point x="462.503483136795" y="50.0" type="line"/>
      <point x="452.503483136795" y="50.0" type="line"/>
      <point x="422.503483136795" y="50.0"/>
      <point x="459.503483136795" y="50.0"/>
      <point x="366.503483136795" y="50.0" type="curve" smooth="yes"/>
      <point x="332.503483136795" y="50.0"/>
      <point x="278.503483136795" y="50.0"/>
      <point x="243.503483136795" y="50.0" type="curve"/>
      <point x="231.50292583490778" y="42.0"/>
      <point x="219.0019505566052" y="28.0"/>
      <point x="228.75104494103851" y="15.0" type="curve" smooth="yes"/>
      <point x="237.00027865094359" y="4.0"/>
      <point x="251.0" y="0.0"/>
      <point x="274.0" y="0.0" type="curve" smooth="yes"/>
      <point x="439.0" y="0.0" type="line" smooth="yes"/>
      <point x="442.0" y="0.0"/>
      <point x="445.2500696627359" y="1.0"/>
      <point x="447.75020898820765" y="3.0" type="curve" smooth="yes"/>
      <point x="450.2503483136795" y="5.0"/>
      <point x="451.7504876391513" y="7.0"/>
      <point x="452.75076629009493" y="11.0" type="curve" smooth="yes"/>
    </contour>
  </outline>
</glyph>
<glyph name="y.ss01" format="2">
  <advance width="600"/>
  <outline>
    <contour>
      <point x="151.53469204247824" y="498.0" type="curve" smooth="yes"/>
      <point x="150.78476170521412" y="499.0"/>
      <point x="149.03483136795006" y="500.0"/>
      <point x="145.03483136795006" y="500.0" type="curve"/>
      <point x="93.03483136795006" y="500.0" type="line"/>
      <point x="151.01504715095442" y="216.0" type="line" smooth="yes"/>
      <point x="194.00027865094359" y="4.0"/>
      <point x="194.7502089882077" y="3.0"/>
      <point x="195.50013932547182" y="2.0" type="curve" smooth="yes"/>
      <point x="196.25006966273588" y="1.0"/>
      <point x="198.0" y="0.0"/>
      <point x="200.0" y="0.0" type="curve" smooth="yes"/>
      <point x="244.0" y="0.0" type="line" smooth="yes"/>
      <point x="268.0" y="0.0"/>
      <point x="280.5012539292462" y="18.0"/>
      <point x="286.7532741485873" y="47.0" type="curve"/>
      <point x="244.7532741485873" y="47.0" type="line"/>
      <point x="242.7532741485873" y="47.0"/>
      <point x="241.7532741485873" y="47.0"/>
      <point x="241.0033438113232" y="48.0" type="curve" smooth="yes"/>
      <point x="240.25341347405913" y="49.0"/>
      <point x="239.7535527995309" y="51.0"/>
      <point x="196.26929657784433" y="277.0" type="curve" smooth="yes"/>
      <point x="154.28406507785513" y="489.0" type="line"/>
      <point x="153.03455271700645" y="496.0"/>
      <point x="152.28462237974236" y="497.0"/>
    </contour>
    <contour>
      <point x="599.2846223797424" y="497.0" type="curve" smooth="yes"/>
      <point x="597.7847617052141" y="499.0"/>
      <point x="596.03483136795" y="500.0"/>
      <point x="593.03483136795" y="500.0" type="curve" smooth="yes"/>
      <point x="550.03483136795" y="500.0" type="line"/>
      <point x="454.77445162030097" y="351.0" type="line" smooth="yes"/>
      <point x="336.7616336768953" y="167.0"/>
      <point x="188.49595956131782" y="-58.0"/>
      <point x="104.73711239385847" y="-185.0" type="curve" smooth="yes"/>
      <point x="87.23530116272508" y="-211.0"/>
      <point x="63.73544048819687" y="-209.0"/>
      <point x="30.735440488196872" y="-209.0" type="curve"/>
      <point x="28.23474386083788" y="-219.0"/>
      <point x="18.48258431602497" y="-250.0"/>
      <point x="39.48258431602497" y="-250.0" type="curve" smooth="yes"/>
      <point x="93.48258431602497" y="-250.0"/>
      <point x="130.73376858253528" y="-233.0"/>
      <point x="162.98718205659438" y="-184.0" type="curve" smooth="yes"/>
      <point x="262.2478404551871" y="-31.0"/>
      <point x="388.76135502595173" y="163.0"/>
      <point x="523.0259145377548" y="372.0" type="curve" smooth="yes"/>
      <point x="597.2840650778552" y="489.0" type="line" smooth="yes"/>
      <point x="600.5344133915346" y="494.0"/>
      <point x="600.0345527170065" y="496.0"/>
    </contour>
    <contour>
      <point x="-100.01393254718002" y="-200.0" type="line"/>
      <point x="-109.76664939388013" y="-239.0" type="line"/>
      <point x="-110.51685838208782" y="-242.0"/>
      <point x="-110.26706737029552" y="-245.0"/>
      <point x="-108.76720669576733" y="-247.0" type="curve"/>
      <point x="-107.26734602123912" y="-249.0"/>
      <point x="-104.51741568397503" y="-250.0"/>
      <point x="-101.51741568397503" y="-250.0" type="curve"/>
      <point x="39.48258431602497" y="-250.0" type="line"/>
      <point x="64.48258431602497" y="-250.0"/>
      <point x="96.23418655895068" y="-227.0"/>
      <point x="102.98606745281998" y="-200.0" type="curve"/>
      <point x="39.98606745281998" y="-200.0"/>
      <point x="-27.01393254718002" y="-200.0"/>
      <point x="-90.01393254718002" y="-200.0" type="curve"/>
    </contour>
  </outline>
</glyph>
